<svg width="135" height="135" viewBox="0 0 135 135" fill="none" xmlns="http://www.w3.org/2000/svg">
<circle cx="66.5041" cy="66.5041" r="66.5041" fill="#FFEDEF"/>
<g clip-path="url(#clip0_5_21852)">
<path d="M85.8771 127.108C80.8368 120.108 76.8932 106.574 76.4265 99.8068L52.45 89.481L42.4744 127.108H85.8771Z" fill="#AC6651" stroke="black" stroke-width="1.40009"/>
<mask id="mask0_5_21852" style="mask-type:alpha" maskUnits="userSpaceOnUse" x="42" y="89" width="44" height="42">
<path d="M85.8771 130.609C80.8368 123.608 76.8932 106.574 76.4265 99.8068L52.45 89.481L42.4744 130.609H85.8771Z" fill="#AC6651"/>
</mask>
<g mask="url(#mask0_5_21852)">
<g style="mix-blend-mode:multiply">
<ellipse cx="75.3764" cy="88.781" rx="20.6513" ry="18.9012" fill="black"/>
</g>
</g>
<mask id="path-5-inside-1_5_21852" fill="white">
<path fill-rule="evenodd" clip-rule="evenodd" d="M96.3381 68.101C96.3286 68.0604 96.319 68.0198 96.3092 67.9792C96.2995 67.9386 96.2897 67.898 96.2798 67.8575L90.5408 43.9042C90.5351 43.8802 90.5294 43.8562 90.5236 43.8322C90.5179 43.8082 90.5121 43.7842 90.5063 43.7602L90.481 43.6548L90.4805 43.6549C86.904 29.1483 72.2813 20.2285 57.7294 23.715C43.1775 27.2015 34.1846 41.7794 37.5703 56.3317L37.5697 56.3319L43.517 81.1546L43.5218 81.1535C47.2331 95.471 61.7475 104.234 76.1921 100.773C90.6367 97.3126 99.604 82.9234 96.424 68.4786L96.4283 68.4775L96.3381 68.101Z"/>
</mask>
<path fill-rule="evenodd" clip-rule="evenodd" d="M96.3381 68.101C96.3286 68.0604 96.319 68.0198 96.3092 67.9792C96.2995 67.9386 96.2897 67.898 96.2798 67.8575L90.5408 43.9042C90.5351 43.8802 90.5294 43.8562 90.5236 43.8322C90.5179 43.8082 90.5121 43.7842 90.5063 43.7602L90.481 43.6548L90.4805 43.6549C86.904 29.1483 72.2813 20.2285 57.7294 23.715C43.1775 27.2015 34.1846 41.7794 37.5703 56.3317L37.5697 56.3319L43.517 81.1546L43.5218 81.1535C47.2331 95.471 61.7475 104.234 76.1921 100.773C90.6367 97.3126 99.604 82.9234 96.424 68.4786L96.4283 68.4775L96.3381 68.101Z" fill="#AC6651"/>
<path d="M96.3381 68.101L94.9751 68.421L94.9766 68.4272L96.3381 68.101ZM96.2798 67.8575L94.9182 68.1838L94.9197 68.1898L96.2798 67.8575ZM90.5408 43.9042L89.1784 44.2268L89.1792 44.2304L90.5408 43.9042ZM90.5063 43.7602L89.1447 44.0864L89.1456 44.09L90.5063 43.7602ZM90.481 43.6548L91.8426 43.3285L91.5168 41.9687L90.1565 42.2928L90.481 43.6548ZM90.4805 43.6549L89.1212 43.99L89.4537 45.3388L90.8051 45.0168L90.4805 43.6549ZM57.7294 23.715L58.0556 25.0766L57.7294 23.715ZM37.5703 56.3317L37.8995 57.6925L39.2485 57.3662L38.934 56.0144L37.5703 56.3317ZM37.5697 56.3319L37.2405 54.971L35.8826 55.2995L36.2081 56.6581L37.5697 56.3319ZM43.517 81.1546L42.1554 81.4809L42.4816 82.8424L43.8431 82.5162L43.517 81.1546ZM43.5218 81.1535L44.8771 80.8022L44.5323 79.4717L43.1957 79.7919L43.5218 81.1535ZM76.1921 100.773L76.5183 102.135L76.1921 100.773ZM96.424 68.4786L96.0975 67.1171L94.7612 67.4376L95.0567 68.7796L96.424 68.4786ZM96.4283 68.4775L96.7549 69.839L98.116 69.5125L97.7899 68.1513L96.4283 68.4775ZM97.7012 67.781C97.6911 67.7383 97.681 67.6956 97.6708 67.653L94.9477 68.3054C94.9569 68.344 94.9661 68.3825 94.9751 68.421L97.7012 67.781ZM97.6708 67.653C97.6606 67.6103 97.6503 67.5677 97.6399 67.5252L94.9197 68.1898C94.9291 68.2284 94.9385 68.2669 94.9477 68.3054L97.6708 67.653ZM89.1792 44.2304L94.9182 68.1838L97.6413 67.5313L91.9023 43.5779L89.1792 44.2304ZM91.9032 43.5815C91.8972 43.5563 91.8912 43.5311 91.8852 43.506L89.1621 44.1583C89.1675 44.1812 89.173 44.204 89.1784 44.2268L91.9032 43.5815ZM91.8852 43.506C91.8791 43.4807 91.8731 43.4555 91.867 43.4304L89.1456 44.09C89.1511 44.1129 89.1566 44.1356 89.1621 44.1583L91.8852 43.506ZM89.1195 43.981L89.1447 44.0864L91.8678 43.434L91.8426 43.3285L89.1195 43.981ZM90.8051 45.0168L90.8055 45.0167L90.1565 42.2928L90.156 42.2929L90.8051 45.0168ZM91.8399 43.3197C88.0792 28.0664 72.704 18.6875 57.4032 22.3535L58.0556 25.0766C71.8585 21.7695 85.7287 30.2303 89.1212 43.99L91.8399 43.3197ZM57.4032 22.3535C42.1023 26.0194 32.6467 41.3475 36.2067 56.649L38.934 56.0144C35.7226 42.2113 44.2527 28.3836 58.0556 25.0766L57.4032 22.3535ZM37.8988 57.6927L37.8995 57.6925L37.2412 54.9709L37.2405 54.971L37.8988 57.6927ZM44.8785 80.8284L38.9312 56.0056L36.2081 56.6581L42.1554 81.4809L44.8785 80.8284ZM43.1957 79.7919L43.1908 79.7931L43.8431 82.5162L43.848 82.515L43.1957 79.7919ZM42.1666 81.5048C46.0689 96.5596 61.3302 105.774 76.5183 102.135L75.8659 99.4119C62.1648 102.695 48.3972 94.3823 44.8771 80.8022L42.1666 81.5048ZM76.5183 102.135C91.7065 98.496 101.135 83.3663 97.7914 68.1776L95.0567 68.7796C98.0729 82.4804 89.567 96.1292 75.8659 99.4119L76.5183 102.135ZM96.1018 67.1161L96.0975 67.1171L96.7506 69.84L96.7549 69.839L96.1018 67.1161ZM94.9766 68.4272L95.0668 68.8038L97.7899 68.1513L97.6997 67.7748L94.9766 68.4272Z" fill="black" mask="url(#path-5-inside-1_5_21852)"/>
</g>
<path d="M86.3212 76.7842C86.2616 76.0606 85.5217 75.6576 84.8946 75.9046C83.4145 76.4879 78.5179 78.3428 75.0652 78.8178C71.2771 79.3389 65.5403 78.706 63.8798 78.4998C63.2045 78.416 62.6026 78.9963 62.7191 79.7016C62.9472 81.0816 63.417 82.412 64.1081 83.6309C64.879 84.9904 65.91 86.1848 67.1424 87.1458C68.3748 88.1069 69.7845 88.8158 71.2909 89.232C72.7972 89.6483 74.3708 89.7638 75.9218 89.5719C77.4728 89.38 78.9709 88.8845 80.3304 88.1136C81.6899 87.3428 82.8842 86.3118 83.8453 85.0794C84.8063 83.8469 85.5152 82.4373 85.9314 80.9309C86.3044 79.5811 86.4359 78.1774 86.3212 76.7842Z" fill="black" stroke="black" stroke-width="1.40009"/>
<mask id="mask1_5_21852" style="mask-type:alpha" maskUnits="userSpaceOnUse" x="63" y="76" width="23" height="13">
<path d="M85.5765 76.3859C85.7571 77.8457 85.6485 79.3267 85.2567 80.7445C84.8649 82.1622 84.1977 83.489 83.2932 84.6489C82.3887 85.8088 81.2646 86.7792 79.9851 87.5047C78.7055 88.2302 77.2956 88.6965 75.8359 88.8771C74.3761 89.0577 72.8951 88.949 71.4773 88.5573C70.0595 88.1655 68.7328 87.4983 67.5729 86.5938C66.413 85.6893 65.4426 84.5652 64.7171 83.2857C63.9916 82.0061 63.5253 80.5962 63.3447 79.1365L85.5765 76.3859Z" fill="#171921"/>
</mask>
<g mask="url(#mask1_5_21852)">
<circle cx="76.031" cy="90.4295" r="7.52546" transform="rotate(-7.05286 76.031 90.4295)" fill="#FC909F"/>
</g>
<path d="M77.2838 46.9174C79.2672 45.984 83.9342 45.1323 86.7343 49.1926" stroke="black" stroke-width="1.40009" stroke-linecap="round"/>
<path d="M50.8848 55.7753C51.6096 53.7065 54.2737 49.7812 59.1323 50.6305" stroke="black" stroke-width="1.40009" stroke-linecap="round"/>
<path opacity="0.35" d="M86.7596 38.026C83.9595 35.7859 79.1175 35.5759 77.134 35.7509L74.3339 26.4753C79.0942 27.5954 85.5346 34.8758 86.7596 38.026Z" fill="#717376"/>
<path d="M50.9897 15.1307C50.9897 15.1307 52.998 13.7441 61.4743 11.6086C69.9505 9.47308 73.041 10.3073 73.041 10.3073L77.1672 35.8C77.1672 35.8 74.3534 35.7393 67.3553 37.2678C60.3572 38.7963 57.0078 40.6512 57.0078 40.6512L50.9897 15.1307Z" fill="#171921"/>
<path d="M38.1066 41.3512C35.7264 26.7904 46.2738 17.4914 51.0574 14.9246L57.0078 40.6512C50.2873 26.7904 41.1401 35.3425 38.1066 41.3512Z" fill="#171921"/>
<path opacity="0.35" d="M44.582 56.7521C42.0618 47.2315 52.2825 42.1093 57.0078 40.6509C54.5576 34.9339 48.9573 29.8002 42.1318 36.1008C35.8314 46.7764 38.2816 55.0021 40.2067 61.3023L44.582 56.7521Z" fill="#717376"/>
<path fill-rule="evenodd" clip-rule="evenodd" d="M56.0495 61.9071C56.0895 62.1917 56.4511 62.2551 56.6522 62.0498C57.5151 61.1693 58.8416 60.5223 60.3814 60.3393C61.2896 60.2314 62.1635 60.2978 62.9421 60.5046C63.206 60.5747 63.4654 60.3519 63.3733 60.0948C62.7904 58.4688 61.1451 57.4 59.3568 57.6125C57.2773 57.8596 55.7918 59.7458 56.0389 61.8253C56.0421 61.8527 56.0457 61.88 56.0495 61.9071Z" fill="black"/>
<path fill-rule="evenodd" clip-rule="evenodd" d="M78.4852 58.407C78.5247 58.6916 78.8864 58.7551 79.0877 58.5502C79.9427 57.6801 81.2549 57.0411 82.7777 56.8601C83.6753 56.7535 84.5391 56.8187 85.309 57.0224C85.5729 57.0922 85.8323 56.8693 85.7398 56.6125C85.1606 55.0046 83.5323 53.9484 81.7626 54.1587C79.7024 54.4035 78.2308 56.2721 78.4756 58.3323C78.4786 58.3573 78.4818 58.3822 78.4852 58.407Z" fill="#171921"/>
<path d="M71.0784 63.5111C72.9056 62.8159 76.092 63.0259 75.8959 66.5608C75.7215 69.7025 72.4982 70.3264 71.4713 69.5938" stroke="black" stroke-width="1.40009"/>
<path d="M44.0705 63.9774C43.255 63.7089 42.3745 63.566 41.4734 63.566C37.8004 63.566 34.823 65.8411 35.173 70.0414C35.5375 74.4166 38.1505 75.9917 41.8234 75.9917C42.2321 75.9917 42.6321 75.9558 43.0204 75.8871C43.4442 75.8121 43.8539 75.698 44.2455 75.5488" stroke="#171921" stroke-width="2.80017"/>
<path d="M44.4205 75.4793C43.6226 75.8092 42.7449 75.9917 41.8234 75.9917C38.1505 75.9917 35.5375 74.4166 35.173 70.0414C34.823 65.8411 37.8004 63.566 41.4734 63.566C42.5715 63.566 43.6388 63.7782 44.5955 64.1713L44.4205 75.4793Z" fill="#AC6651"/>
<path d="M43.0204 66.5413C41.6204 65.8996 38.5402 65.5612 37.4201 69.3415" stroke="#171921" stroke-width="1.40009"/>
<path d="M39.3452 66.7162C40.1036 67.3579 41.5504 69.3413 41.2703 72.1415" stroke="#171921" stroke-width="1.40009"/>
<path d="M66.4239 125.86L66.8542 125.308L66.424 125.86L67.0266 126.329L67.4417 125.688L67.4418 125.688L67.4425 125.687L67.4457 125.682L67.4601 125.66C67.473 125.64 67.4928 125.611 67.5191 125.571C67.5718 125.492 67.6506 125.376 67.7536 125.227C67.9596 124.929 68.2622 124.503 68.6456 123.994C69.4134 122.974 70.5 121.626 71.7795 120.309C73.0624 118.988 74.5188 117.718 76.0239 116.835C77.5347 115.948 79.0268 115.489 80.4115 115.676C95.2659 117.679 106.197 124.258 113.293 134.058H17.6322C23.3375 123.788 31.4522 117.251 44.6084 114.251C45.1691 114.124 45.9313 114.162 46.8844 114.384C47.8277 114.603 48.9032 114.989 50.063 115.499C52.3825 116.518 54.9718 118.005 57.405 119.545C59.8345 121.083 62.0905 122.662 63.7403 123.859C64.5647 124.456 65.2368 124.957 65.7023 125.309C65.935 125.485 66.1161 125.623 66.2386 125.717C66.2999 125.764 66.3466 125.8 66.3777 125.824L66.4128 125.851L66.4214 125.858L66.4235 125.86L66.4239 125.86Z" fill="#6BD9E9" stroke="black" stroke-width="1.40009"/>
<path d="M40.4669 115.187L42.2754 108.455C42.3486 108.183 42.7013 108.106 42.8917 108.314C48.0942 114.007 54.6593 113.784 56.8383 113.523C57.1341 113.487 57.3657 113.811 57.2268 114.074L52.6215 122.808C52.551 122.942 52.4065 123.016 52.2584 122.985C50.8763 122.697 43.9898 121.014 40.5075 115.461C40.4566 115.379 40.442 115.28 40.4669 115.187Z" fill="#D2EFF3" stroke="black" stroke-width="1.40009"/>
<path d="M86.1735 115.151L82.12 108.331C81.9824 108.1 81.6434 108.104 81.4967 108.33C79.4886 111.422 76.0253 112.847 74.8142 113.268C74.5963 113.344 74.4967 113.603 74.6141 113.801L79.3403 121.787C79.4108 121.906 79.5441 121.97 79.6773 121.933C80.4245 121.72 82.9885 120.647 86.1689 115.515C86.2373 115.404 86.2398 115.262 86.1735 115.151Z" fill="#D2EFF3" stroke="black" stroke-width="1.40009"/>
<path d="M60.3787 121.283L57.2285 113.757L54.7784 119.008L60.3787 121.283Z" fill="black" stroke="black" stroke-width="1.40009" stroke-linejoin="round"/>
<path d="M71.4044 120.933L74.5546 113.407L77.0048 118.657L71.4044 120.933Z" fill="black" stroke="black" stroke-width="1.40009" stroke-linejoin="round"/>
<path d="M46.7279 107.107L42.5276 108.157L46.0279 110.432L46.7279 107.107Z" fill="black" stroke="black" stroke-width="1.40009" stroke-linejoin="round"/>
<path d="M78.0549 107.107L81.9051 108.157L79.4549 110.432L78.0549 107.107Z" fill="black" stroke="black" stroke-width="1.40009" stroke-linejoin="round"/>
<defs>
<clipPath id="clip0_5_21852">
<rect width="71.0526" height="113.684" fill="white" transform="translate(31.9738 15.2764)"/>
</clipPath>
</defs>
</svg>
