<svg width="204" height="207" viewBox="0 0 204 207" fill="none" xmlns="http://www.w3.org/2000/svg">
<circle cx="101.75" cy="101.75" r="101.75" fill="#E0DDFF"/>
<g clip-path="url(#clip0_5_21840)">
<path d="M129.366 193.506C121.654 182.796 115.621 162.089 114.907 151.735L78.2231 135.937L62.9606 193.506H129.366Z" fill="#F9C9B6" stroke="black" stroke-width="2.14211"/>
<mask id="mask0_5_21840" style="mask-type:alpha" maskUnits="userSpaceOnUse" x="62" y="135" width="68" height="64">
<path d="M129.366 198.862C121.654 188.151 115.621 162.089 114.907 151.735L78.2231 135.937L62.9606 198.862H129.366Z" fill="#F9C9B6"/>
</mask>
<g mask="url(#mask0_5_21840)">
<g style="mix-blend-mode:multiply">
<ellipse cx="113.3" cy="134.866" rx="31.5961" ry="28.9184" fill="black"/>
</g>
</g>
<mask id="path-5-inside-1_5_21840" fill="white">
<path fill-rule="evenodd" clip-rule="evenodd" d="M145.371 103.225C145.356 103.163 145.342 103.101 145.327 103.04C145.312 102.978 145.297 102.916 145.282 102.854L136.501 66.2049C136.493 66.1683 136.484 66.1318 136.475 66.0952C136.466 66.0586 136.457 66.022 136.449 65.9854L136.41 65.8237L136.409 65.8239C130.937 43.6292 108.565 29.982 86.3005 35.3163C64.0364 40.6506 50.2775 62.9545 55.4575 85.2192L55.4565 85.2195L64.5558 123.198L64.5632 123.196C70.2413 145.102 92.4481 158.509 114.548 153.214C136.648 147.919 150.368 125.904 145.503 103.804L145.509 103.802L145.371 103.225Z"/>
</mask>
<path fill-rule="evenodd" clip-rule="evenodd" d="M145.371 103.225C145.356 103.163 145.342 103.101 145.327 103.04C145.312 102.978 145.297 102.916 145.282 102.854L136.501 66.2049C136.493 66.1683 136.484 66.1318 136.475 66.0952C136.466 66.0586 136.457 66.022 136.449 65.9854L136.41 65.8237L136.409 65.8239C130.937 43.6292 108.565 29.982 86.3005 35.3163C64.0364 40.6506 50.2775 62.9545 55.4575 85.2192L55.4565 85.2195L64.5558 123.198L64.5632 123.196C70.2413 145.102 92.4481 158.509 114.548 153.214C136.648 147.919 150.368 125.904 145.503 103.804L145.509 103.802L145.371 103.225Z" fill="#F9C9B6"/>
<path d="M145.371 103.225L143.286 103.715L143.288 103.724L145.371 103.225ZM145.327 103.04L147.41 102.541L147.41 102.54L145.327 103.04ZM145.282 102.854L143.199 103.354L143.201 103.363L145.282 102.854ZM136.501 66.2049L134.417 66.6987L134.418 66.704L136.501 66.2049ZM136.475 66.0952L134.392 66.5942L134.392 66.5942L136.475 66.0952ZM136.449 65.9854L134.365 66.4845L134.367 66.49L136.449 65.9854ZM136.41 65.8237L138.493 65.3247L137.994 63.2411L135.91 63.7407L136.41 65.8237ZM136.409 65.8239L134.329 66.3367L134.839 68.4033L136.909 67.907L136.409 65.8239ZM86.3005 35.3163L85.8014 33.2332L86.3005 35.3163ZM55.4575 85.2192L55.9554 87.3026L58.0264 86.8077L57.5439 84.7338L55.4575 85.2192ZM55.4565 85.2195L54.9585 83.136L52.8739 83.6342L53.3733 85.7186L55.4565 85.2195ZM64.5558 123.198L62.4726 123.697L62.9716 125.78L65.0546 125.281L64.5558 123.198ZM64.5632 123.196L66.6368 122.659L66.1092 120.623L64.0644 121.113L64.5632 123.196ZM114.548 153.214L115.047 155.297L114.548 153.214ZM145.503 103.804L145.003 101.721L142.958 102.211L143.411 104.264L145.503 103.804ZM145.509 103.802L146.008 105.885L148.091 105.386L147.592 103.303L145.509 103.802ZM147.456 102.735C147.441 102.67 147.426 102.606 147.41 102.541L143.244 103.539C143.258 103.597 143.272 103.656 143.286 103.715L147.456 102.735ZM147.41 102.54C147.394 102.476 147.379 102.411 147.363 102.346L143.201 103.363C143.216 103.421 143.23 103.48 143.244 103.539L147.41 102.54ZM134.418 66.704L143.199 103.354L147.365 102.355L138.584 65.7058L134.418 66.704ZM138.586 65.7112C138.577 65.673 138.567 65.6346 138.558 65.5961L134.392 66.5942C134.4 66.6289 134.408 66.6637 134.417 66.6987L138.586 65.7112ZM138.558 65.5961C138.549 65.5574 138.54 65.519 138.53 65.4809L134.367 66.49C134.375 66.525 134.384 66.5597 134.392 66.5942L138.558 65.5961ZM134.327 66.3228L134.365 66.4845L138.532 65.4864L138.493 65.3247L134.327 66.3228ZM136.909 67.907L136.909 67.9068L135.91 63.7407L135.91 63.7409L136.909 67.907ZM138.489 65.3111C132.735 41.9738 109.211 27.6243 85.8014 33.2332L86.7996 37.3995C107.918 32.3397 129.139 45.2845 134.329 66.3367L138.489 65.3111ZM85.8014 33.2332C62.3914 38.842 47.9244 62.2937 53.3711 85.7046L57.5439 84.7338C52.6305 63.6153 65.6814 42.4592 86.7996 37.3995L85.8014 33.2332ZM55.9544 87.3029L55.9554 87.3026L54.9596 83.1358L54.9585 83.136L55.9544 87.3029ZM66.6389 122.699L57.5396 84.7203L53.3733 85.7186L62.4726 123.697L66.6389 122.699ZM64.0644 121.113L64.0569 121.115L65.0546 125.281L65.062 125.279L64.0644 121.113ZM62.4896 123.734C68.4602 146.767 91.8096 160.865 115.047 155.297L114.049 151.131C93.0866 156.153 72.0225 143.436 66.6368 122.659L62.4896 123.734ZM115.047 155.297C138.285 149.73 152.71 126.582 147.595 103.343L143.411 104.264C148.025 125.226 135.011 146.109 114.049 151.131L115.047 155.297ZM145.01 101.719L145.003 101.721L146.002 105.887L146.008 105.885L145.01 101.719ZM143.288 103.724L143.426 104.301L147.592 103.303L147.454 102.726L143.288 103.724Z" fill="black" mask="url(#path-5-inside-1_5_21840)"/>
</g>
<path d="M112.957 135.033C118.76 133.983 122.16 127.57 120.978 121.036C119.796 114.502 114.364 109.687 108.56 110.737C102.756 111.787 99.3564 118.201 100.539 124.735C101.721 131.269 107.153 136.083 112.957 135.033Z" fill="black" stroke="black" stroke-width="1.92316"/>
<mask id="mask1_5_21840" style="mask-type:alpha" maskUnits="userSpaceOnUse" x="101" y="111" width="20" height="24">
<ellipse cx="110.758" cy="122.885" rx="9.42397" ry="11.3837" transform="rotate(-10.2582 110.758 122.885)" fill="#171921"/>
</mask>
<g mask="url(#mask1_5_21840)">
<ellipse cx="112.504" cy="132.531" rx="10.8201" ry="9.80263" transform="rotate(-10.2582 112.504 132.531)" fill="#FC909F"/>
</g>
<circle cx="86.656" cy="83.4126" r="6.42632" transform="rotate(-6.27568 86.656 83.4126)" fill="#D2EFF3"/>
<ellipse cx="87.347" cy="88.3199" rx="4.81974" ry="7.2296" transform="rotate(-6.77646 87.347 88.3199)" fill="black"/>
<circle cx="120.812" cy="78.7921" r="6.42632" transform="rotate(-6.27568 120.812 78.7921)" fill="#D2EFF3"/>
<ellipse cx="121.621" cy="82.9645" rx="4.81974" ry="7.2296" transform="rotate(-6.27568 121.621 82.9645)" fill="black"/>
<path d="M115.543 69.0386C118.578 67.6106 125.718 66.3075 130.003 72.5196" stroke="black" stroke-width="2.14211" stroke-linecap="round"/>
<path d="M75.1536 82.5911C76.2625 79.4258 80.3386 73.4201 87.772 74.7196" stroke="black" stroke-width="2.14211" stroke-linecap="round"/>
<path d="M76.4898 79.344L73.1971 76.438" stroke="black" stroke-width="2.14211" stroke-linecap="round"/>
<path d="M128.375 69.5435L131.668 66.6375" stroke="black" stroke-width="2.14211" stroke-linecap="round"/>
<path d="M79.9434 76.3218L77.7763 72.5021" stroke="black" stroke-width="2.14211" stroke-linecap="round"/>
<path d="M124.386 67.5923L126.553 63.7726" stroke="black" stroke-width="2.14211" stroke-linecap="round"/>
<path d="M84.2684 74.3865L83.0897 70.156" stroke="black" stroke-width="2.14211" stroke-linecap="round"/>
<path d="M119.526 67.2636L120.704 63.0331" stroke="black" stroke-width="2.14211" stroke-linecap="round"/>
<path d="M86.1572 62.1651C85.7364 61.2323 85.736 61.2325 85.7356 61.2327L85.7343 61.2333L85.7303 61.2351L85.717 61.2412L85.6688 61.2634C85.6272 61.2826 85.5671 61.3108 85.4897 61.3478C85.3348 61.4217 85.1104 61.531 84.8263 61.6751C84.2581 61.9633 83.4503 62.3913 82.4809 62.9552C80.5442 64.0817 77.9517 65.7572 75.3348 67.9523C70.1313 72.317 64.6655 78.8789 64.3363 87.3919C64.1946 91.0546 63.7366 108.749 63.839 115.511C63.9253 121.205 66.8719 127.318 70.9595 132.956C74.521 137.867 79.0188 142.514 83.4769 146.343C63.2523 147.143 47.9305 144.49 37.5763 141.585C32.1766 140.07 28.126 138.485 25.434 137.286C24.3698 136.811 23.518 136.397 22.879 136.07C27.7492 132.491 31.8124 126.355 34.4932 117.247C37.4332 107.259 38.7368 93.6189 37.593 75.6299C36.5565 59.3296 44.478 45.5583 56.4478 35.8223C68.43 26.0763 84.3969 20.443 99.2243 20.443C107.248 20.443 113.758 22.0142 119.006 25.8254C124.256 29.638 128.373 35.7864 131.423 45.1957L131.634 45.8487L132.319 45.9006C138.947 46.403 143.607 49.135 147.044 53.5124C150.517 57.9369 152.778 64.0941 154.436 71.49C155.528 76.3631 154.465 81.1716 153.186 86.7089L153.126 86.967C151.875 92.385 150.482 98.4126 151.095 105.46C151.646 111.803 154.178 118.029 156.282 122.816C156.552 123.431 156.814 124.019 157.064 124.579C157.8 126.233 158.429 127.647 158.854 128.802C159.139 129.576 159.304 130.161 159.356 130.577C159.383 130.789 159.373 130.899 159.366 130.945C159.128 131.165 158.687 131.409 157.982 131.624C157.249 131.848 156.325 132.013 155.264 132.117C153.143 132.324 150.582 132.276 148.121 132.039C145.657 131.801 143.352 131.381 141.737 130.867C140.918 130.607 140.35 130.345 140.031 130.119C139.982 130.084 139.944 130.055 139.916 130.031C140.115 129.341 140.403 128.519 140.736 127.569C142.447 122.682 145.339 114.421 143.468 103.54C142.349 97.0302 139.363 85.534 136.671 75.709C135.322 70.7869 134.043 66.269 133.101 62.9817C132.63 61.338 132.243 60.0017 131.974 59.0762C131.839 58.6135 131.734 58.2534 131.663 58.0089L131.581 57.7304L131.56 57.6592L131.555 57.6411L131.554 57.6365L131.553 57.6354C131.553 57.6351 131.553 57.635 130.571 57.9237L131.553 57.635L131.056 55.9431L129.834 57.2142L129.833 57.2145L129.831 57.2166L129.821 57.2273L129.775 57.2743C129.733 57.3167 129.669 57.3811 129.583 57.4659C129.412 57.6355 129.153 57.8867 128.809 58.2074C128.122 58.8489 127.097 59.7678 125.758 60.8664C123.077 63.0641 119.141 65.977 114.128 68.8256C104.586 74.2479 91.1801 79.4185 75.1301 79.0183C80.2789 74.2355 83.2412 70.3044 84.9386 67.4567C85.8849 65.8691 86.4373 64.6196 86.7557 63.7493C86.9148 63.3143 87.0154 62.9745 87.0774 62.7351C87.1084 62.6155 87.1298 62.521 87.1441 62.4523C87.1512 62.418 87.1566 62.3901 87.1605 62.3688L87.1653 62.3417L87.1669 62.3319L87.1676 62.3279L87.1678 62.3262C87.168 62.3253 87.1681 62.3246 86.1572 62.1651ZM86.1572 62.1651L85.7364 61.2323L87.4632 60.4533L87.1681 62.3246L86.1572 62.1651ZM85.1476 61.9984C85.1477 61.9977 85.1476 61.9985 85.1471 62.0011L85.1472 62.0008L85.1476 61.9984ZM139.834 129.946C139.835 129.946 139.841 129.953 139.849 129.967C139.836 129.953 139.832 129.946 139.834 129.946Z" fill="#D2EFF3" stroke="black" stroke-width="2.0467"/>
<path d="M133.028 47.2131C133.296 49.6229 132.867 54.4427 132.224 57.6558" stroke="black" stroke-width="2.14211"/>
<path d="M105.72 89.6137C105.829 91.6714 106.63 96.0835 108.96 97.2703C111.872 98.7537 109.589 103.671 104.137 103.356" stroke="black" stroke-width="2.14211"/>
<path d="M68.5074 113.75L68.7934 113.442V113.022V95.081V94.4816L68.2825 94.1681C66.283 92.9411 63.8514 92.2698 61.3389 92.2698C58.3183 92.2698 55.4905 93.2056 53.4761 95.1054C51.4392 97.0266 50.3403 99.8354 50.6321 103.337C50.9164 106.749 52.0619 109.261 53.9619 110.929C53.8058 111.464 53.7597 112.041 53.8321 112.648C54.0405 114.399 54.9254 115.66 56.2927 116.437C57.5961 117.178 59.2643 117.439 61.0412 117.439C63.9754 117.439 66.5483 115.861 68.5074 113.75Z" stroke="black" stroke-width="2.14211"/>
<path fill-rule="evenodd" clip-rule="evenodd" d="M71.9916 103.507C72.0298 103.158 72.0494 102.804 72.0494 102.445C72.0494 96.9732 66.9584 93.3409 61.3389 93.3409C55.7194 93.3409 51.1639 96.8218 51.6994 103.248C51.9974 106.824 53.277 109.177 55.2611 110.594C54.9459 111.142 54.808 111.786 54.8956 112.522C55.2325 115.35 57.6471 116.368 61.0412 116.368C66.9885 116.368 71.6941 108.846 71.9916 103.507Z" fill="#F9C9B6"/>
<path d="M63.7059 97.8931C61.5638 96.9113 56.8512 96.3936 55.1375 102.177" stroke="black" stroke-width="2.14211"/>
<path d="M58.0829 98.1606C59.2432 99.1424 61.4567 102.177 61.0283 106.461" stroke="black" stroke-width="2.14211"/>
<circle cx="60.225" cy="113.155" r="2.14211" fill="white"/>
<circle cx="60.7605" cy="112.62" r="0.535526" fill="#FFEDEF"/>
<path d="M101.627 192.563C101.627 192.563 101.627 192.563 102.286 191.718L101.627 192.563L102.549 193.281L103.184 192.301L103.185 192.3L103.186 192.299L103.191 192.291L103.213 192.258C103.232 192.228 103.263 192.182 103.303 192.122C103.383 192.001 103.504 191.823 103.662 191.595C103.977 191.139 104.44 190.488 105.026 189.708C106.201 188.147 107.864 186.086 109.821 184.07C111.784 182.049 114.012 180.107 116.315 178.755C118.627 177.398 120.909 176.696 123.028 176.982C145.755 180.046 162.48 190.113 173.336 205.107H26.9769C35.7058 189.394 48.1212 179.392 68.2499 174.803C69.1077 174.607 70.274 174.666 71.7322 175.005C73.1754 175.341 74.8208 175.931 76.5954 176.711C80.1441 178.271 84.1057 180.545 87.8285 182.902C91.5456 185.255 94.9972 187.671 97.5213 189.501C98.7827 190.416 99.811 191.183 100.523 191.72C100.879 191.989 101.156 192.201 101.344 192.345C101.437 192.417 101.509 192.472 101.557 192.508L101.61 192.55L101.623 192.56L101.627 192.563L101.627 192.563Z" fill="#9287FF" stroke="black" stroke-width="2.14211"/>
<path d="M61.9136 176.234L64.6805 165.935C64.7926 165.518 65.3322 165.4 65.6235 165.719C73.5831 174.428 83.6276 174.087 86.9615 173.687C87.4141 173.633 87.7685 174.128 87.5559 174.532L80.5099 187.895C80.4019 188.099 80.1809 188.212 79.9542 188.165C77.8397 187.724 67.3035 185.149 61.9757 176.653C61.8977 176.528 61.8755 176.376 61.9136 176.234Z" fill="#E0DDFF" stroke="black" stroke-width="2.14211"/>
<path d="M131.844 176.178L125.642 165.745C125.431 165.391 124.913 165.397 124.688 165.742C121.616 170.474 116.317 172.654 114.464 173.298C114.131 173.414 113.978 173.81 114.158 174.114L121.389 186.331C121.497 186.514 121.701 186.613 121.905 186.555C123.048 186.229 126.971 184.588 131.837 176.735C131.941 176.567 131.945 176.349 131.844 176.178Z" fill="#E0DDFF" stroke="black" stroke-width="2.14211"/>
<path d="M92.3783 185.56L87.5586 174.046L83.8099 182.079L92.3783 185.56Z" fill="black" stroke="black" stroke-width="2.14211" stroke-linejoin="round"/>
<path d="M109.247 185.025L114.067 173.511L117.816 181.544L109.247 185.025Z" fill="black" stroke="black" stroke-width="2.14211" stroke-linejoin="round"/>
<path d="M71.4928 163.871L65.0665 165.478L70.4217 168.959L71.4928 163.871Z" fill="black" stroke="black" stroke-width="2.14211" stroke-linejoin="round"/>
<path d="M119.422 163.871L125.313 165.478L121.564 168.959L119.422 163.871Z" fill="black" stroke="black" stroke-width="2.14211" stroke-linejoin="round"/>
<defs>
<clipPath id="clip0_5_21840">
<rect width="104.211" height="166.737" fill="white" transform="translate(46.8948 22.4055)"/>
</clipPath>
</defs>
</svg>
