<svg width="190" height="192" viewBox="0 0 190 192" fill="none" xmlns="http://www.w3.org/2000/svg">
<circle cx="94.5389" cy="94.5389" r="94.5389" fill="#F9C9B6"/>
<path d="M118.323 179.24C111.158 169.289 105.552 145.073 104.889 135.454L70.805 120.775L56.6241 179.24H118.323Z" fill="#FC909F" stroke="black" stroke-width="1.99029"/>
<mask id="mask0_5_21864" style="mask-type:alpha" maskUnits="userSpaceOnUse" x="56" y="120" width="63" height="60">
<path d="M118.323 179.24C111.158 169.289 105.552 145.073 104.889 135.454L70.805 120.775L56.6241 179.24H118.323Z" fill="#FFEDEF"/>
</mask>
<g mask="url(#mask0_5_21864)">
<ellipse cx="104.246" cy="121.137" rx="29.3568" ry="26.8689" fill="black"/>
</g>
<g clip-path="url(#clip0_5_21864)">
<path d="M119.732 184.545C112.566 174.594 106.96 150.379 106.297 140.759L72.2133 126.08L58.0325 184.545H119.732Z" fill="#AC6651" stroke="black" stroke-width="1.99029"/>
<mask id="mask1_5_21864" style="mask-type:alpha" maskUnits="userSpaceOnUse" x="58" y="126" width="62" height="59">
<path d="M119.732 184.545C112.566 174.594 106.96 150.379 106.297 140.759L72.2133 126.08L58.0325 184.545H119.732Z" fill="#AC6651"/>
</mask>
<g mask="url(#mask1_5_21864)">
<ellipse cx="104.804" cy="125.085" rx="29.3568" ry="26.8689" fill="black"/>
</g>
<mask id="path-8-inside-1_5_21864" fill="white">
<path fill-rule="evenodd" clip-rule="evenodd" d="M134.602 95.6874C134.589 95.6298 134.575 95.5721 134.561 95.5145C134.548 95.4568 134.534 95.3993 134.52 95.3417L126.361 61.2889C126.353 61.2553 126.345 61.2218 126.337 61.1882C126.329 61.1547 126.321 61.1212 126.313 61.0877L126.276 60.9361L126.276 60.9362C121.191 40.3144 100.404 27.6345 79.7182 32.5907C59.032 37.547 46.2482 58.2702 51.0611 78.957L51.0601 78.9572L60.1312 116.818L60.2728 116.784C66.5437 135.619 86.2993 146.845 105.964 142.133C125.628 137.422 138.152 118.462 135.206 98.8303L135.347 98.7965L134.602 95.6874Z"/>
</mask>
<path fill-rule="evenodd" clip-rule="evenodd" d="M134.602 95.6874C134.589 95.6298 134.575 95.5721 134.561 95.5145C134.548 95.4568 134.534 95.3993 134.52 95.3417L126.361 61.2889C126.353 61.2553 126.345 61.2218 126.337 61.1882C126.329 61.1547 126.321 61.1212 126.313 61.0877L126.276 60.9361L126.276 60.9362C121.191 40.3144 100.404 27.6345 79.7182 32.5907C59.032 37.547 46.2482 58.2702 51.0611 78.957L51.0601 78.9572L60.1312 116.818L60.2728 116.784C66.5437 135.619 86.2993 146.845 105.964 142.133C125.628 137.422 138.152 118.462 135.206 98.8303L135.347 98.7965L134.602 95.6874Z" fill="#AC6651"/>
<path d="M134.602 95.6874L132.665 96.1423L132.667 96.1512L134.602 95.6874ZM134.52 95.3417L132.584 95.8055L132.586 95.8141L134.52 95.3417ZM126.361 61.2889L124.424 61.7474L124.425 61.7526L126.361 61.2889ZM126.337 61.1882L124.401 61.6518L124.401 61.6521L126.337 61.1882ZM126.313 61.0877L124.377 61.5514L124.378 61.5563L126.313 61.0877ZM126.276 60.9361L128.212 60.4723L127.748 58.5379L125.814 59.0003L126.276 60.9361ZM126.276 60.9362L124.343 61.4127L124.816 63.3314L126.738 62.872L126.276 60.9362ZM79.7182 32.5907L80.1819 34.5262L79.7182 32.5907ZM51.0611 78.957L51.5283 80.8916L53.4469 80.4284L52.9996 78.5059L51.0611 78.957ZM51.0601 78.9572L50.593 77.0225L48.6617 77.4888L49.1246 79.4209L51.0601 78.9572ZM60.1312 116.818L58.1957 117.281L58.6594 119.217L60.5949 118.753L60.1312 116.818ZM60.2728 116.784L62.1612 116.155L61.5845 114.423L59.8091 114.848L60.2728 116.784ZM105.964 142.133L106.428 144.069H106.428L105.964 142.133ZM135.206 98.8303L134.743 96.8948L132.967 97.3202L133.238 99.1256L135.206 98.8303ZM135.347 98.7965L135.811 100.732L137.747 100.268L137.283 98.3328L135.347 98.7965ZM136.54 95.2325C136.526 95.1718 136.511 95.1112 136.497 95.0508L132.626 95.9781C132.639 96.033 132.652 96.0877 132.665 96.1423L136.54 95.2325ZM136.497 95.0508C136.482 94.9901 136.468 94.9296 136.453 94.8694L132.586 95.8141C132.6 95.8689 132.613 95.9236 132.626 95.9781L136.497 95.0508ZM124.425 61.7526L132.584 95.8055L136.455 94.878L128.296 60.8252L124.425 61.7526ZM128.298 60.8304C128.289 60.7949 128.281 60.7596 128.272 60.7243L124.401 61.6521C124.409 61.684 124.417 61.7158 124.424 61.7474L128.298 60.8304ZM128.272 60.7247C128.264 60.6891 128.255 60.6538 128.247 60.619L124.378 61.5563C124.386 61.5885 124.394 61.6203 124.401 61.6518L128.272 60.7247ZM124.341 61.3998L124.377 61.5514L128.248 60.624L128.212 60.4723L124.341 61.3998ZM126.738 62.872L126.739 62.8718L125.814 59.0003L125.813 59.0004L126.738 62.872ZM128.208 60.4598C122.862 38.7764 101.005 25.4439 79.2545 30.6552L80.1819 34.5262C99.8035 29.8251 119.521 41.8525 124.343 61.4127L128.208 60.4598ZM79.2545 30.6552C57.5036 35.8665 44.0619 57.6562 49.1226 79.408L52.9996 78.5059C48.4344 58.8841 60.5604 39.2274 80.1819 34.5262L79.2545 30.6552ZM51.5273 80.8919L51.5283 80.8916L50.5939 77.0223L50.593 77.0225L51.5273 80.8919ZM62.0667 116.354L52.9956 78.4935L49.1246 79.4209L58.1957 117.281L62.0667 116.354ZM59.8091 114.848L59.6675 114.882L60.5949 118.753L60.7365 118.719L59.8091 114.848ZM58.3844 117.412C64.9787 137.219 85.75 149.023 106.428 144.069L105.5 140.198C86.8486 144.666 68.1087 134.019 62.1612 116.155L58.3844 117.412ZM106.428 144.069C127.105 139.114 140.272 119.179 137.175 98.535L133.238 99.1256C136.032 117.745 124.152 135.729 105.5 140.198L106.428 144.069ZM134.884 96.861L134.743 96.8948L135.67 100.766L135.811 100.732L134.884 96.861ZM132.667 96.1512L133.412 99.2603L137.283 98.3328L136.538 95.2237L132.667 96.1512Z" fill="black" mask="url(#path-8-inside-1_5_21864)"/>
</g>
<path d="M91.1863 109.25C93.6445 112.458 97.3697 116.012 103.116 115.201C108.863 114.391 111.419 110.427 110.666 107.217" stroke="black" stroke-width="1.99029"/>
<path d="M106.733 63.5141C109.553 62.1872 116.187 60.9764 120.168 66.7483" stroke="black" stroke-width="1.99029" stroke-linecap="round"/>
<path d="M69.206 76.106C70.2363 73.1651 74.0235 67.585 80.9302 68.7924" stroke="black" stroke-width="1.99029" stroke-linecap="round"/>
<path d="M139.081 64.9983C139.081 32.1141 120.94 9.8716 98.8432 9.87157C70.5346 9.87157 41.6924 20.4905 41.6924 70.7021C41.6924 83.1255 46.996 92.3825 54.4126 99.2058C53.6693 98.2757 53.0703 97.4426 52.6723 96.7572C51.2339 83.3322 67.1844 73.0281 82.7927 62.945C91.0785 57.5923 99.2678 52.3019 104.708 46.64C109.482 49.3452 123.513 60.6783 126.187 65.2613C127.621 67.7192 129.923 76.1426 131.496 85.9752C136.64 79.7968 139.081 73.6142 139.081 64.9983Z" fill="white" stroke="black" stroke-width="1.99029"/>
<path d="M105.015 46.3168C111.57 40.3735 121.377 26.809 120.747 17.999" stroke="black" stroke-width="1.99029"/>
<ellipse cx="79.9358" cy="80.0255" rx="4.47816" ry="4.97573" transform="rotate(-6.77646 79.9358 80.0255)" fill="black"/>
<ellipse cx="111.796" cy="75.0479" rx="4.47816" ry="4.97573" transform="rotate(-6.27568 111.796 75.0479)" fill="black"/>
<circle cx="113.85" cy="76.5251" r="12.9369" stroke="#F4D150" stroke-width="1.99029"/>
<circle cx="80.5123" cy="81.0032" r="12.9369" stroke="#F4D150" stroke-width="1.99029"/>
<path d="M101.41 80.0081C101.41 78.9524 100.991 77.9399 100.245 77.1934C99.498 76.4469 98.4855 76.0275 97.4298 76.0275C96.3741 76.0275 95.3616 76.4469 94.6151 77.1934C93.8686 77.9399 93.4492 78.9524 93.4492 80.0081" stroke="#F4D150" stroke-width="1.99029"/>
<path d="M67.8242 81.9984L52.897 84.7351" stroke="#F4D150" stroke-width="1.99029"/>
<path d="M97.9228 83.0135C98.0241 84.9254 98.7677 89.0249 100.932 90.1275C103.639 91.5058 101.517 96.0749 96.4513 95.7819" stroke="black" stroke-width="1.99029"/>
<path d="M60.197 86.4096C59.0377 86.0279 57.7861 85.8247 56.505 85.8247C51.2838 85.8247 47.0512 89.0589 47.5487 95.0298C48.067 101.249 51.7814 103.489 57.0026 103.489C57.5836 103.489 58.1523 103.438 58.7043 103.34C59.3066 103.233 59.8891 103.071 60.4458 102.859" stroke="black" stroke-width="3.98059"/>
<path d="M60.6946 102.76C59.5603 103.229 58.3126 103.489 57.0026 103.489C51.7814 103.489 48.067 101.249 47.5487 95.0298C47.0512 89.0589 51.2838 85.8247 56.505 85.8247C58.0662 85.8247 59.5834 86.1264 60.9434 86.6853L60.6946 102.76Z" fill="#AC6651"/>
<path d="M58.7043 90.0543C56.714 89.1421 52.3354 88.6611 50.7432 94.0349" stroke="black" stroke-width="1.99029"/>
<path d="M53.4798 90.3029C54.5579 91.2151 56.6145 94.0347 56.2164 98.0153" stroke="black" stroke-width="1.99029"/>
<path d="M114.219 164.423L114.289 164.439L114.36 164.445C137.311 166.338 151.073 176.532 161.061 190.571H25.0649C33.1751 175.971 44.7107 166.678 63.4129 162.414C71.3807 160.597 80.6628 159.691 91.5533 159.691C96.2582 159.691 99.9193 160.409 103.394 161.356C104.681 161.707 105.974 162.1 107.298 162.502C109.488 163.168 111.76 163.858 114.219 164.423Z" fill="#9287FF" stroke="black" stroke-width="1.99029"/>
<path d="M57.6834 163.493L62.2378 153.743C62.3465 153.51 62.6169 153.399 62.8592 153.485C81.7304 160.165 98.898 159.694 114.808 155.265C115.008 155.21 115.222 155.283 115.344 155.451L122.277 164.931C122.467 165.192 122.37 165.559 122.07 165.677C105.348 172.243 73.9702 171.127 57.9246 164.152C57.67 164.041 57.5659 163.745 57.6834 163.493Z" fill="#E0DDFF" stroke="black" stroke-width="1.99029"/>
<defs>
<clipPath id="clip0_5_21864">
<rect width="95.7895" height="158.053" fill="white" transform="translate(43.1053 20.5949)"/>
</clipPath>
</defs>
</svg>
