<svg width="182" height="185" viewBox="0 0 182 185" fill="none" xmlns="http://www.w3.org/2000/svg">
<circle cx="91" cy="91" r="91" fill="#F4D150"/>
<path d="M115.537 176.808C108.64 167.229 103.244 143.921 102.605 134.661L69.7974 120.532L56.1474 176.808H115.537Z" fill="#FC909F" stroke="black" stroke-width="1.91579"/>
<mask id="mask0_5_21827" style="mask-type:alpha" maskUnits="userSpaceOnUse" x="56" y="120" width="60" height="57">
<path d="M115.537 176.808C108.64 167.229 103.244 143.921 102.605 134.661L69.7974 120.532L56.1474 176.808H115.537Z" fill="#FFEDEF"/>
</mask>
<g mask="url(#mask0_5_21827)">
<ellipse cx="101.863" cy="119.832" rx="28.2579" ry="25.8632" fill="black"/>
</g>
<g clip-path="url(#clip0_5_21827)">
<path d="M116.39 173.392C109.493 163.814 104.097 145.294 103.458 136.035L70.6501 121.905L57.0001 173.392H116.39Z" fill="#F9C9B6" stroke="black" stroke-width="1.91579"/>
<mask id="mask1_5_21827" style="mask-type:alpha" maskUnits="userSpaceOnUse" x="57" y="121" width="60" height="58">
<path d="M116.39 178.182C109.493 168.603 104.097 145.294 103.458 136.035L70.6501 121.905L57.0001 178.182H116.39Z" fill="#F9C9B6"/>
</mask>
<g mask="url(#mask1_5_21827)">
<g style="mix-blend-mode:multiply">
<ellipse cx="102.021" cy="120.948" rx="28.2579" ry="25.8632" fill="black"/>
</g>
</g>
<mask id="path-8-inside-1_5_21827" fill="white">
<path fill-rule="evenodd" clip-rule="evenodd" d="M130.704 92.6502C130.691 92.5947 130.678 92.5392 130.664 92.4838C130.651 92.4283 130.638 92.3729 130.624 92.3175L122.771 59.5422C122.764 59.509 122.756 59.4757 122.748 59.4425C122.74 59.4092 122.732 59.376 122.724 59.3428L122.689 59.1997L122.689 59.1999C117.795 39.35 97.786 27.1448 77.8741 31.9155C57.9622 36.6862 45.6569 56.6336 50.2897 76.546L50.2888 76.5463L58.4267 110.512L58.4334 110.511C63.5116 130.102 83.3722 142.093 103.137 137.357C122.902 132.622 135.173 112.932 130.821 93.1671L130.827 93.1657L130.704 92.6502Z"/>
</mask>
<path fill-rule="evenodd" clip-rule="evenodd" d="M130.704 92.6502C130.691 92.5947 130.678 92.5392 130.664 92.4838C130.651 92.4283 130.638 92.3729 130.624 92.3175L122.771 59.5422C122.764 59.509 122.756 59.4757 122.748 59.4425C122.74 59.4092 122.732 59.376 122.724 59.3428L122.689 59.1997L122.689 59.1999C117.795 39.35 97.786 27.1448 77.8741 31.9155C57.9622 36.6862 45.6569 56.6336 50.2897 76.546L50.2888 76.5463L58.4267 110.512L58.4334 110.511C63.5116 130.102 83.3722 142.093 103.137 137.357C122.902 132.622 135.173 112.932 130.821 93.1671L130.827 93.1657L130.704 92.6502Z" fill="#F9C9B6"/>
<path d="M130.704 92.6502L128.839 93.0881L128.841 93.0965L130.704 92.6502ZM130.624 92.3175L128.761 92.7639L128.763 92.7723L130.624 92.3175ZM122.771 59.5422L120.907 59.9834L120.908 59.9886L122.771 59.5422ZM122.748 59.4425L120.885 59.8888L120.885 59.8889L122.748 59.4425ZM122.724 59.3428L120.861 59.7892L120.862 59.7942L122.724 59.3428ZM122.689 59.1997L124.552 58.7534L124.107 56.8922L122.245 57.3362L122.689 59.1997ZM122.689 59.1999L120.829 59.6585L121.284 61.5045L123.133 61.0634L122.689 59.1999ZM77.8741 31.9155L77.4277 30.0524L77.8741 31.9155ZM50.2897 76.546L50.7339 78.4096L52.5874 77.9678L52.1556 76.1119L50.2897 76.546ZM50.2888 76.5463L49.8445 74.6827L47.9788 75.1274L48.4257 76.9926L50.2888 76.5463ZM58.4267 110.512L56.5636 110.959L57.0098 112.821L58.8722 112.375L58.4267 110.512ZM58.4334 110.511L60.2879 110.03L59.8162 108.21L57.9879 108.647L58.4334 110.511ZM103.137 137.357L103.584 139.22L103.137 137.357ZM130.821 93.1671L130.375 91.3041L128.546 91.7424L128.95 93.579L130.821 93.1671ZM130.827 93.1657L131.274 95.0287L133.137 94.5822L132.69 92.7193L130.827 93.1657ZM132.569 92.2123C132.555 92.1539 132.541 92.0956 132.527 92.0374L128.801 92.9302C128.814 92.9829 128.826 93.0355 128.839 93.0881L132.569 92.2123ZM132.527 92.0374C132.513 91.9792 132.499 91.921 132.485 91.8627L128.763 92.7723C128.776 92.8248 128.789 92.8774 128.801 92.9302L132.527 92.0374ZM120.908 59.9886L128.761 92.7639L132.487 91.8712L124.634 59.0958L120.908 59.9886ZM124.636 59.101C124.627 59.0659 124.619 59.0309 124.611 58.996L120.885 59.8889C120.892 59.9206 120.9 59.952 120.907 59.9834L124.636 59.101ZM124.611 58.9961C124.602 58.9611 124.594 58.9262 124.585 58.8915L120.862 59.7942C120.869 59.8258 120.877 59.8574 120.885 59.8888L124.611 58.9961ZM120.826 59.6461L120.861 59.7892L124.587 58.8965L124.552 58.7534L120.826 59.6461ZM123.133 61.0634L123.134 61.0632L122.245 57.3362L122.244 57.3364L123.133 61.0634ZM124.549 58.7413C119.403 37.8696 98.3644 25.0361 77.4277 30.0524L78.3205 33.7785C97.2075 29.2534 116.187 40.8305 120.829 59.6585L124.549 58.7413ZM77.4277 30.0524C56.491 35.0687 43.5525 56.0427 48.4237 76.9802L52.1556 76.1119C47.7614 57.2246 59.4334 38.3037 78.3205 33.7785L77.4277 30.0524ZM50.733 78.4098L50.7339 78.4096L49.8455 74.6825L49.8445 74.6827L50.733 78.4098ZM60.2898 110.066L52.1518 76.0999L48.4257 76.9926L56.5636 110.959L60.2898 110.066ZM57.9879 108.647L57.9812 108.649L58.8722 112.375L58.8789 112.374L57.9879 108.647ZM56.5789 110.991C61.9186 131.591 82.8011 144.2 103.584 139.22L102.691 135.494C83.9432 139.986 65.1045 128.612 60.2879 110.03L56.5789 110.991ZM103.584 139.22C124.366 134.241 137.268 113.538 132.692 92.7552L128.95 93.579C133.078 112.326 121.439 131.002 102.691 135.494L103.584 139.22ZM130.381 91.3026L130.375 91.3041L131.268 95.0301L131.274 95.0287L130.381 91.3026ZM128.841 93.0965L128.964 93.612L132.69 92.7193L132.567 92.2038L128.841 93.0965Z" fill="black" mask="url(#path-8-inside-1_5_21827)"/>
</g>
<path d="M85.0238 104.54C86.2212 112.682 99.8712 116.513 112.324 107.174" stroke="black" stroke-width="1.91579"/>
<path d="M104.258 62.6818C106.972 61.4046 113.358 60.2391 117.19 65.7949" stroke="black" stroke-width="1.91579" stroke-linecap="round"/>
<path d="M68.1353 74.8024C69.1271 71.9715 72.7725 66.6004 79.4206 67.7625" stroke="black" stroke-width="1.91579" stroke-linecap="round"/>
<path d="M87.2354 23.0603L87.272 23.0642L87.3087 23.0653C100.082 23.441 110.011 28.5242 117.038 34.7278C123.77 40.671 127.79 47.5989 129.101 52.3206C127.157 53.4305 123.826 54.3856 119.577 55.1688C114.943 56.0232 109.379 56.6471 103.702 57.0919C92.3478 57.9813 80.6215 58.1482 75.1445 58.0291L72.2359 57.9659L74.538 59.7447C75.7342 60.6691 77.3264 61.3124 79.0106 61.7648C80.7069 62.2205 82.5639 62.5 84.342 62.6589C86.1734 62.8225 87.9591 62.8611 89.4383 62.8233C84.3678 66.7324 77.9139 69.7382 71.5503 71.9662C64.2003 74.5395 57.0526 76.047 52.4742 76.718L51.4449 76.8688L51.68 77.8822C53.2833 84.7927 56.2304 96.8728 58.2071 104.975C59.0841 108.57 59.77 111.381 60.0629 112.611C60.5822 114.792 62.2172 117.901 64.0835 120.767C65.8043 123.409 67.8119 125.982 69.5061 127.566L65.7521 142.803H51.594C55.5873 136.714 56.4302 129.678 55.6159 122.216C54.7345 114.139 51.8986 105.451 48.9092 96.7518C48.6149 95.8954 48.3192 95.0389 48.0235 94.1827C45.3012 86.2996 42.5864 78.4384 41.1157 70.9041C39.4866 62.5589 39.414 54.7487 42.4724 47.8818C47.4242 36.7636 56.2022 30.3073 64.9825 26.7493C73.7835 23.1831 82.5214 22.558 87.2354 23.0603Z" fill="white" stroke="black" stroke-width="1.91579"/>
<ellipse cx="79.7297" cy="79.2022" rx="4.31053" ry="4.78947" transform="rotate(-6.77646 79.7297 79.2022)" fill="black"/>
<ellipse cx="110.397" cy="74.411" rx="4.31053" ry="4.78947" transform="rotate(-6.27568 110.397 74.411)" fill="black"/>
<path d="M96.5606 79.4809C97.4938 86.1209 101.547 90.8714 101.547 90.8714C101.547 90.8714 100.287 93.9504 95.4108 93.6684" stroke="black" stroke-width="1.91579"/>
<path d="M61.9917 103.069L62.2475 102.793V102.417V86.3722V85.8361L61.7906 85.5558C60.0022 84.4584 57.8276 83.858 55.5805 83.858C52.8791 83.858 50.35 84.6949 48.5485 86.394C46.7268 88.1122 45.7439 90.6243 46.0049 93.7559C46.2592 96.8076 47.2837 99.0537 48.9829 100.546C48.8433 101.025 48.8021 101.541 48.8668 102.084C49.0533 103.649 49.8446 104.777 51.0675 105.472C52.2332 106.134 53.7251 106.368 55.3143 106.368C57.9385 106.368 60.2396 104.957 61.9917 103.069Z" stroke="black" stroke-width="1.91579"/>
<path fill-rule="evenodd" clip-rule="evenodd" d="M65.1077 93.9088C65.1419 93.5964 65.1595 93.2792 65.1595 92.958C65.1595 88.0645 60.6063 84.8159 55.5805 84.8159C50.5547 84.8159 46.4805 87.929 46.9595 93.6764C47.226 96.8745 48.3703 98.9792 50.1448 100.246C49.863 100.737 49.7396 101.313 49.8179 101.97C50.1193 104.5 52.2787 105.41 55.3143 105.41C60.6328 105.41 64.841 98.6836 65.1077 93.9088Z" fill="#F9C9B6"/>
<path d="M57.6975 88.8871C55.7817 88.0091 51.5669 87.5461 50.0343 92.7187" stroke="black" stroke-width="1.91579"/>
<path d="M52.6685 89.1264C53.7062 90.0045 55.6859 92.7185 55.3027 96.5501" stroke="black" stroke-width="1.91579"/>
<path d="M109.943 158.268L110.011 158.284L110.079 158.289C132.171 160.111 145.418 169.924 155.032 183.437H24.1267C31.9334 169.384 43.0372 160.439 61.0392 156.335C68.7088 154.586 77.6435 153.714 88.1263 153.714C92.655 153.714 96.1792 154.404 99.5234 155.316C100.762 155.654 102.007 156.032 103.281 156.419C105.39 157.06 107.577 157.725 109.943 158.268Z" fill="#77311D" stroke="black" stroke-width="1.91579"/>
<path d="M55.5242 157.373L59.908 147.988C60.0127 147.763 60.2729 147.657 60.5062 147.739C78.671 154.169 95.1959 153.716 110.51 149.453C110.703 149.4 110.909 149.471 111.027 149.632L117.7 158.757C117.883 159.008 117.79 159.362 117.5 159.476C101.404 165.796 71.2013 164.722 55.7563 158.007C55.5113 157.901 55.4111 157.615 55.5242 157.373Z" fill="white" stroke="black" stroke-width="1.91579"/>
<defs>
<clipPath id="clip0_5_21827">
<rect width="94.7368" height="151.579" fill="white" transform="translate(42.6317 20.3686)"/>
</clipPath>
</defs>
</svg>
