<svg width="60" height="60" viewBox="0 0 60 60" fill="none" xmlns="http://www.w3.org/2000/svg">
<g clip-path="url(#clip0_6_23543)">
<path d="M57.4604 7.34905L52.651 2.5397C51.0718 0.960483 48.5114 0.960483 46.9323 2.5397L40.7633 8.70865L51.2915 19.2369L57.4605 13.0679C59.0396 11.4886 59.0394 8.92815 57.4604 7.34905Z" fill="#F4BA43"/>
<path d="M43.0328 29.1554L54.0408 18.1474L41.853 5.95967L30.845 16.9677L43.0328 29.1554Z" fill="#EE7975"/>
<path d="M13.7461 37.8345L5.93713 49.4832L10.5167 54.0627L22.1653 46.2537L13.7461 37.8345Z" fill="#6CB9F9"/>
<path d="M9.16666 37.0946L1.35767 44.9036L5.93722 49.4831L15.666 39.7544L9.16666 37.0946Z" fill="#1C274C"/>
<path d="M20.2456 44.3339L10.5167 54.0627L15.0964 58.6422L22.9054 50.8334L20.2456 44.3339Z" fill="#1C274C"/>
<path d="M22.9052 50.8317L45.7275 28.0093L31.9896 14.2714L9.16724 37.0938L22.9052 50.8317Z" fill="#EE81D4"/>
<path d="M58.4206 6.38891L53.611 1.57932C51.5049 -0.526648 48.0785 -0.526883 45.9724 1.57932L42.6744 4.87743C42.4396 4.69919 42.1516 4.60122 41.8535 4.60122C41.4935 4.60122 41.1482 4.74431 40.8936 4.99884L32.747 13.1456C32.2192 12.7898 31.4965 12.8453 31.0294 13.3123L0.39786 43.9435C-0.132294 44.4736 -0.132294 45.3332 0.39786 45.8635L14.1366 59.6023C14.3912 59.8568 14.7365 59.9999 15.0965 59.9999C15.4565 59.9999 15.8019 59.8568 16.0564 59.6023L23.856 51.8026C23.8592 51.7997 23.8622 51.7964 23.8654 51.7934C23.8683 51.7902 23.8715 51.7872 23.8746 51.784L46.6878 28.9707C47.1548 28.5037 47.2104 27.7808 46.8545 27.2531L55.0013 19.1065C55.2558 18.8519 55.3989 18.5066 55.3989 18.1466C55.3989 17.8485 55.3007 17.5606 55.1227 17.3257L58.4208 14.0276C60.5264 11.9215 60.5264 8.495 58.4206 6.38891ZM15.0965 56.7223L3.2775 44.9034L9.16673 39.0143L11.8265 41.6742L7.90627 45.5943C7.37611 46.1245 7.376 46.984 7.90627 47.5143C8.43654 48.0442 9.29611 48.0445 9.82603 47.5143L13.7463 43.594L16.4061 46.2538L12.4858 50.1741C11.9557 50.7042 11.9557 51.5638 12.4858 52.0941C13.016 52.624 13.8755 52.624 14.4058 52.0941L18.3261 48.1738L20.9857 50.8336L15.0965 56.7223ZM22.9053 48.9134L19.2925 45.3006C19.2902 45.2983 19.2879 45.2962 19.2857 45.2937C19.2834 45.2914 19.2811 45.2893 19.2788 45.2869L11.0865 37.0945L31.9893 16.1918L43.808 28.0106L22.9053 48.9134ZM44.9524 25.3153L34.6847 15.0476L41.8536 7.87859L52.1214 18.1464L44.9524 25.3153ZM56.5006 12.1076L53.2115 15.3967L44.6032 6.78852L47.8922 3.49943C48.9397 2.45213 50.6439 2.45225 51.691 3.49943L56.5006 8.30902C57.548 9.35609 57.548 11.0603 56.5006 12.1076Z" fill="#1C274C"/>
</g>
<defs>
<clipPath id="clip0_6_23543">
<rect width="60" height="60" fill="white"/>
</clipPath>
</defs>
</svg>
