<svg width="60" height="60" viewBox="0 0 60 60" fill="none" xmlns="http://www.w3.org/2000/svg">
<g clip-path="url(#clip0_6_23530)">
<path d="M17.2625 58.75C16.9456 58.7508 16.6402 58.6311 16.4081 58.4153C16.1761 58.1995 16.0347 57.9036 16.0125 57.5875L12.6 13.175H47.4L43.9875 57.5875C43.9653 57.9036 43.8239 58.1995 43.5918 58.4153C43.3597 58.6311 43.0544 58.7508 42.7375 58.75H17.2625Z" fill="#EE7975"/>
<path d="M46.05 14.425L42.7375 57.5H17.2625L13.95 14.425H46.05ZM48.75 11.925H11.25L14.775 57.6875C14.8224 58.3175 15.1065 58.9062 15.5704 59.3352C16.0342 59.7643 16.6432 60.0018 17.275 60H42.7375C43.3693 60.0018 43.9783 59.7643 44.4421 59.3352C44.9059 58.9062 45.1901 58.3175 45.2375 57.6875L48.75 11.925Z" fill="#1C274C"/>
<path d="M12.6376 10.675L13.5001 2.20002C13.528 1.93815 13.6521 1.69597 13.8484 1.52044C14.0447 1.34491 14.2992 1.24854 14.5626 1.25002H45.4376C45.7009 1.24854 45.9554 1.34491 46.1517 1.52044C46.3481 1.69597 46.4722 1.93815 46.5001 2.20002L47.3626 10.675H12.6376Z" fill="#EE7975"/>
<path d="M45.275 2.5L45.9875 9.425H14.025L14.725 2.5H45.275ZM45.4375 0H14.5625C13.9904 6.72108e-05 13.4385 0.212233 13.0137 0.595489C12.5889 0.978745 12.3213 1.50588 12.2625 2.075L11.25 11.925H48.75L47.7375 2.075C47.6787 1.50588 47.4111 0.978745 46.9863 0.595489C46.5614 0.212233 46.0096 6.72252e-05 45.4375 0Z" fill="#1C274C"/>
<path d="M10.3625 7.59998H49.6375V14.575H10.3625V7.59998Z" fill="#F4BA43"/>
<path d="M48.3875 8.84997V13.325H11.6125V8.84997H48.3875ZM49.2 6.34998H10.8C10.5773 6.34997 10.3569 6.39403 10.1513 6.47961C9.94574 6.5652 9.75915 6.69062 9.60229 6.84864C9.44543 7.00667 9.32139 7.19418 9.23732 7.40036C9.15325 7.60654 9.11082 7.82732 9.11247 8.04998V14.15C9.11247 14.5975 9.29026 15.0267 9.60673 15.3432C9.9232 15.6597 10.3524 15.8375 10.8 15.8375H49.2C49.6475 15.8375 50.0767 15.6597 50.3932 15.3432C50.7097 15.0267 50.8875 14.5975 50.8875 14.15V8.04998C50.8875 7.60242 50.7097 7.1732 50.3932 6.85673C50.0767 6.54026 49.6475 6.36248 49.2 6.36248V6.34998Z" fill="#1C274C"/>
<path d="M15.5001 50.8625L13.2626 21.725H46.7501L44.5001 50.8625H15.5001Z" fill="#F4BA43"/>
<path d="M45.3625 22.975L43.35 49.6125H16.6125L14.6125 22.975H45.3625ZM48.0625 20.475H11.9125L14.3375 52.1125H45.6625L48.1 20.475H48.0625Z" fill="#1C274C"/>
</g>
<defs>
<clipPath id="clip0_6_23530">
<rect width="60" height="60" fill="white"/>
</clipPath>
</defs>
</svg>
