<svg width="60" height="60" viewBox="0 0 60 60" fill="none" xmlns="http://www.w3.org/2000/svg">
<path d="M46.25 17.5C49.7018 17.5 52.5 14.7018 52.5 11.25C52.5 7.79822 49.7018 5 46.25 5C42.7982 5 40 7.79822 40 11.25C40 14.7018 42.7982 17.5 46.25 17.5Z" stroke="#1C274C" stroke-width="3.75"/>
<path d="M36 54.9995V52.987C36 52.7925 36 52.6952 35.999 52.6027C35.9425 47.2545 33.4433 42.2257 29.2143 38.951C29.1413 38.8945 29.0638 38.8357 28.9088 38.7182C28.8088 38.6425 28.7588 38.6047 28.7193 38.5735C26.3273 36.6845 26.1675 33.1132 28.381 31.0182C28.4175 30.9837 28.4642 30.9412 28.5567 30.857L31.157 28.4932C35.2245 24.7955 33.9863 18.1111 28.8643 16.1155C27.0305 15.4011 24.988 15.446 23.1876 16.2403L21.8834 16.8157M13.5974 21.5287L10 24.0905" stroke="#1C274C" stroke-width="3.75" stroke-linecap="round"/>
<path d="M22.5 42.5L21.8516 43.278C18.3022 47.5372 13.0443 50 7.5 50" stroke="#1C274C" stroke-width="3.75" stroke-linecap="round"/>
<path d="M40 30C43.2827 30.8207 46.7173 30.8207 50 30" stroke="#1C274C" stroke-width="3.75" stroke-linecap="round"/>
</svg>
