<svg width="60" height="60" viewBox="0 0 60 60" fill="none" xmlns="http://www.w3.org/2000/svg">
<g clip-path="url(#clip0_6_23409)">
<path d="M56.6002 28.4949C55.8788 15.6273 45.6895 4.91436 32.8812 3.57027C29.2146 3.165 25.9434 3.13549 24.708 5.02305C23.5715 6.54508 23.8186 9.11462 26.1805 10.3895C30.2819 12.2179 32.8217 16.4773 32.4957 20.9543C32.1103 26.3404 27.574 30.6987 22.168 30.8767C18.2543 30.9953 14.7064 29.0681 12.6803 25.7573C12.0379 24.7097 11.0398 24.0475 9.92306 23.9289C4.66535 23.7412 2.80745 27.8129 3.48928 31.8451C4.39843 45.4538 15.8033 56.3449 29.4516 56.6413C45.9464 56.5424 57.3216 43.932 56.6002 28.4949Z" fill="white"/>
<path d="M53.319 28.6826C51.0361 7.78031 31.3493 5.64555 27.5247 6.88094C27.3467 7.03901 27.3666 7.1873 27.574 7.34538C32.9504 9.74691 35.3914 15.311 35.856 21.1914C35.3123 30.7678 26.2202 34.2566 22.3066 34.2071C19.5196 34.5134 13.3725 32.952 9.86398 27.5065C7.93682 26.2415 6.91882 28.2872 6.78047 29.582C5.89104 37.7353 13.7973 53.3107 29.5408 53.3107C29.7187 53.3107 39.1766 54.0125 46.9742 46.0172C51.4215 41.3228 53.6649 35.1757 53.319 28.6826Z" fill="#F4BA43"/>
<path d="M59.9208 28.307C59.1104 13.8385 47.6365 1.77154 33.2371 0.259439C27.9103 -0.32363 24.3622 -0.0272033 21.9903 3.0959C19.7074 6.04106 20.3596 11.4371 24.8267 13.4236C27.6533 14.6886 29.4124 17.6139 29.1851 20.7171C28.9183 24.4232 25.7952 27.4276 22.0595 27.5561C22.0595 27.5561 17.8396 27.813 15.5171 24.0378C14.3213 22.1007 12.4336 20.7171 10.2791 20.6381C0.663019 20.2526 -0.542713 29.1373 0.168925 32.0725C1.18677 47.3909 14.0149 59.6359 29.3828 59.9817C49.4944 60.1399 61.0772 43.1314 59.9208 28.307ZM29.4421 56.6513C15.784 56.3548 4.38891 45.4638 3.47976 31.8551C2.80772 27.8427 4.66577 23.7511 9.91354 23.9389C11.0204 24.0575 12.0284 24.7295 12.6708 25.7673C14.7067 29.0781 18.2448 31.0052 22.1585 30.8866C27.5645 30.7087 32.1006 26.3503 32.4861 20.9642C32.8024 16.4774 30.2626 12.2376 26.171 10.3994C23.8188 9.12456 23.5718 6.56481 24.6985 5.03299C25.9437 3.14543 29.2248 3.17494 32.8717 3.58021C45.67 4.9243 55.8691 15.6374 56.5907 28.5048C57.3216 43.932 45.9464 56.5424 29.4421 56.6513Z" fill="#1C274C"/>
<path d="M42.7444 20.035C43.9502 20.035 44.9286 19.0566 44.9286 17.8509C44.9286 16.6452 43.9502 15.6667 42.7444 15.6667C41.5387 15.6667 40.5603 16.6452 40.5603 17.8509C40.5603 19.0566 41.5387 20.035 42.7444 20.035Z" fill="white"/>
<path d="M43.9799 37.9033C45.1857 37.9033 46.1641 36.9249 46.1641 35.7192C46.1641 34.5134 45.1857 33.535 43.9799 33.535C42.7742 33.535 41.7958 34.5134 41.7958 35.7192C41.7958 36.9249 42.7742 37.9033 43.9799 37.9033Z" fill="#6CB9F9"/>
<path d="M33.0691 46.0172C33.0691 44.8115 32.0907 43.8331 30.8849 43.8331C29.6792 43.8331 28.7008 44.8115 28.7008 46.0172C28.7008 47.2229 29.6792 48.2013 30.8849 48.2013C32.0907 48.2013 33.0691 47.2229 33.0691 46.0172Z" fill="white"/>
<path d="M17.4739 39.5637C17.4739 38.358 16.4955 37.3796 15.2897 37.3796C14.084 37.3796 13.1056 38.358 13.1056 39.5637C13.1056 40.7694 14.084 41.7479 15.2897 41.7479C16.4955 41.7479 17.4739 40.7792 17.4739 39.5637Z" fill="#6CB9F9"/>
<path d="M42.7444 23.3656C45.7883 23.3656 48.2591 20.885 48.2591 17.8509C48.2591 14.8167 45.7786 12.3362 42.7444 12.3362C39.7105 12.3362 37.2297 14.8167 37.2297 17.8509C37.2297 20.885 39.7103 23.3656 42.7444 23.3656ZM42.7444 15.6669C43.9502 15.6669 44.9286 16.6453 44.9286 17.851C44.9286 19.0568 43.9502 20.0352 42.7444 20.0352C41.5387 20.0352 40.5603 19.0568 40.5603 17.851C40.5603 16.6453 41.5387 15.6669 42.7444 15.6669Z" fill="#1C274C"/>
<path d="M43.9798 30.1947C40.9359 30.1947 38.4651 32.6753 38.4651 35.7094C38.4651 38.7435 40.9457 41.2241 43.9798 41.2241C47.0237 41.2241 49.4945 38.7435 49.4945 35.7094C49.4945 32.6753 47.0335 30.1947 43.9798 30.1947ZM43.9798 37.9133C42.7741 37.9133 41.7956 36.9349 41.7956 35.7291C41.7956 34.5234 42.7741 33.545 43.9798 33.545C45.1855 33.545 46.1639 34.5234 46.1639 35.7291C46.1639 36.9349 45.1854 37.9133 43.9798 37.9133Z" fill="#1C274C"/>
<path d="M30.8652 40.5025C27.8212 40.5025 25.3505 42.9831 25.3505 46.0172C25.3505 49.0611 27.831 51.5319 30.8652 51.5319C33.8993 51.5319 36.3799 49.0513 36.3799 46.0172C36.3896 42.9633 33.9189 40.5025 30.8652 40.5025ZM30.8652 48.2013C29.6594 48.2013 28.681 47.2229 28.681 46.0172C28.681 44.8115 29.6594 43.8331 30.8652 43.8331C32.0709 43.8331 33.0493 44.8115 33.0493 46.0172C33.0591 47.2229 32.0709 48.2013 30.8652 48.2013Z" fill="#1C274C"/>
<path d="M15.2897 34.059C12.2458 34.059 9.77502 36.5395 9.77502 39.5737C9.77502 42.6176 12.2556 45.0883 15.2897 45.0883C18.3238 45.0883 20.8044 42.6078 20.8044 39.5737C20.8044 36.5296 18.3237 34.059 15.2897 34.059ZM15.2897 41.7676C14.084 41.7676 13.1056 40.7892 13.1056 39.5834C13.1056 38.3777 14.084 37.3993 15.2897 37.3993C16.4955 37.3993 17.4739 38.3777 17.4739 39.5834C17.4739 40.7892 16.4955 41.7676 15.2897 41.7676Z" fill="#1C274C"/>
</g>
<defs>
<clipPath id="clip0_6_23409">
<rect width="60" height="60" fill="white"/>
</clipPath>
</defs>
</svg>
