<svg width="145" height="183" viewBox="0 0 145 183" fill="none" xmlns="http://www.w3.org/2000/svg">
<circle cx="55" cy="90" r="90" fill="#D2EFF3"/>
<g clip-path="url(#clip0_5_21891)">
<path d="M80.579 171.711C73.7579 162.237 68.4211 143.921 67.7895 134.763L35.3422 120.79L21.8422 171.711H80.579Z" fill="#F9C9B6" stroke="black" stroke-width="1.89474"/>
<mask id="mask0_5_21891" style="mask-type:alpha" maskUnits="userSpaceOnUse" x="21" y="120" width="60" height="57">
<path d="M80.579 176.448C73.7579 166.974 68.4211 143.921 67.7895 134.763L35.3422 120.79L21.8422 176.448H80.579Z" fill="#AC6651"/>
</mask>
<g mask="url(#mask0_5_21891)">
<g style="mix-blend-mode:multiply">
<ellipse cx="66.3685" cy="119.842" rx="27.9474" ry="25.5789" fill="black"/>
</g>
</g>
<mask id="path-5-inside-1_5_21891" fill="white">
<path fill-rule="evenodd" clip-rule="evenodd" d="M94.736 91.8563C94.7231 91.8012 94.71 91.7462 94.6969 91.6912C94.6837 91.6362 94.6704 91.5812 94.657 91.5264L86.8907 59.1117C86.8829 59.0788 86.8751 59.0459 86.8672 59.013C86.8593 58.9801 86.8514 58.9473 86.8434 58.9145L86.8095 58.7729L86.8089 58.7731C81.9687 39.1414 62.1798 27.0702 42.4867 31.7885C22.7937 36.5068 10.6236 56.235 15.2055 75.9286L15.2046 75.9289L23.2531 109.522L23.2597 109.52C28.2821 128.896 47.9244 140.755 67.4723 136.072C87.0202 131.388 99.1556 111.915 94.8522 92.367L94.858 92.3656L94.736 91.8563Z"/>
</mask>
<path fill-rule="evenodd" clip-rule="evenodd" d="M94.736 91.8563C94.7231 91.8012 94.71 91.7462 94.6969 91.6912C94.6837 91.6362 94.6704 91.5812 94.657 91.5264L86.8907 59.1117C86.8829 59.0788 86.8751 59.0459 86.8672 59.013C86.8593 58.9801 86.8514 58.9473 86.8434 58.9145L86.8095 58.7729L86.8089 58.7731C81.9687 39.1414 62.1798 27.0702 42.4867 31.7885C22.7937 36.5068 10.6236 56.235 15.2055 75.9286L15.2046 75.9289L23.2531 109.522L23.2597 109.52C28.2821 128.896 47.9244 140.755 67.4723 136.072C87.0202 131.388 99.1556 111.915 94.8522 92.367L94.858 92.3656L94.736 91.8563Z" fill="#F9C9B6"/>
<path d="M94.736 91.8563L92.8914 92.2893L92.8934 92.2977L94.736 91.8563ZM94.6969 91.6912L96.5394 91.2497L96.5394 91.2496L94.6969 91.6912ZM94.657 91.5264L92.8143 91.9678L92.8164 91.9761L94.657 91.5264ZM86.8907 59.1117L85.0469 59.548L85.0481 59.5531L86.8907 59.1117ZM86.8672 59.013L85.0246 59.4543L85.0246 59.4546L86.8672 59.013ZM86.8434 58.9145L85.0008 59.3559L85.002 59.3607L86.8434 58.9145ZM86.8095 58.7729L88.6521 58.3315L88.2112 56.491L86.3702 56.9298L86.8095 58.7729ZM86.8089 58.7731L84.9692 59.2267L85.4193 61.0522L87.2482 60.6162L86.8089 58.7731ZM15.2055 75.9286L15.6496 77.7706L17.4769 77.33L17.0509 75.4993L15.2055 75.9286ZM15.2046 75.9289L14.7604 74.0869L12.9211 74.5304L13.362 76.3703L15.2046 75.9289ZM23.2531 109.522L21.4105 109.963L21.8519 111.805L23.6943 111.364L23.2531 109.522ZM23.2597 109.52L25.0938 109.045L24.6271 107.244L22.8185 107.677L23.2597 109.52ZM67.4723 136.072L67.0309 134.229L67.4723 136.072ZM94.8522 92.367L94.4113 90.5243L92.6017 90.9572L93.0018 92.7744L94.8522 92.367ZM94.858 92.3656L95.2989 94.2083L97.1422 93.7673L96.7006 91.9241L94.858 92.3656ZM96.5806 91.4232C96.567 91.3653 96.5533 91.3074 96.5394 91.2497L92.8543 92.1327C92.8668 92.185 92.8792 92.2372 92.8914 92.2893L96.5806 91.4232ZM96.5394 91.2496C96.5256 91.1919 96.5116 91.1343 96.4975 91.0766L92.8164 91.9761C92.8291 92.0282 92.8418 92.0805 92.8543 92.1328L96.5394 91.2496ZM85.0481 59.5531L92.8144 91.9678L96.4995 91.0849L88.7333 58.6702L85.0481 59.5531ZM88.7345 58.6753C88.7263 58.6408 88.7181 58.6062 88.7097 58.5714L85.0246 59.4546C85.0321 59.4856 85.0395 59.5168 85.0469 59.548L88.7345 58.6753ZM88.7098 58.5717C88.7015 58.5368 88.6931 58.5023 88.6849 58.4682L85.002 59.3607C85.0097 59.3923 85.0172 59.4235 85.0246 59.4543L88.7098 58.5717ZM84.9669 59.2144L85.0008 59.3559L88.686 58.473L88.6521 58.3315L84.9669 59.2144ZM87.2482 60.6162L87.2489 60.616L86.3702 56.9298L86.3695 56.93L87.2482 60.6162ZM88.6485 58.3195C83.5592 37.6772 62.7519 24.9848 42.0453 29.9459L42.9282 33.6311C61.6077 29.1556 80.3782 40.6056 84.9692 59.2267L88.6485 58.3195ZM42.0453 29.9459C21.3386 34.907 8.54231 55.6506 13.36 76.358L17.0509 75.4993C12.7049 56.8195 24.2487 38.1065 42.9282 33.6311L42.0453 29.9459ZM15.6487 77.7708L15.6496 77.7706L14.7614 74.0867L14.7604 74.0869L15.6487 77.7708ZM25.0957 109.08L17.0472 75.4874L13.362 76.3703L21.4105 109.963L25.0957 109.08ZM22.8185 107.677L22.8119 107.679L23.6943 111.364L23.7009 111.363L22.8185 107.677ZM21.4256 109.995C26.7066 130.369 47.3597 142.839 67.9138 137.914L67.0309 134.229C48.4892 138.671 29.8575 127.423 25.0938 109.045L21.4256 109.995ZM67.9138 137.914C88.4679 132.99 101.228 112.515 96.7026 91.9596L93.0018 92.7744C97.0836 111.316 85.5725 129.787 67.0309 134.229L67.9138 137.914ZM94.4172 90.5229L94.4113 90.5243L95.293 94.2097L95.2989 94.2083L94.4172 90.5229ZM92.8934 92.2977L93.0154 92.8071L96.7006 91.9241L96.5786 91.4148L92.8934 92.2977Z" fill="black" mask="url(#path-5-inside-1_5_21891)"/>
<path d="M38.4211 120.458C38.4211 120.72 38.2091 120.932 37.9475 120.932C37.6859 120.932 37.4738 120.72 37.4738 120.458C37.4738 120.196 37.6859 119.984 37.9475 119.984C38.2091 119.984 38.4211 120.196 38.4211 120.458Z" fill="black"/>
<path d="M63.0527 123.774C63.0527 124.035 62.8406 124.248 62.579 124.248C62.3174 124.248 62.1054 124.035 62.1054 123.774C62.1054 123.512 62.3174 123.3 62.579 123.3C62.8406 123.3 63.0527 123.512 63.0527 123.774Z" fill="black"/>
<path d="M61.158 127.09C61.158 127.351 60.9459 127.563 60.6843 127.563C60.4227 127.563 60.2106 127.351 60.2106 127.09C60.2106 126.828 60.4227 126.616 60.6843 126.616C60.9459 126.616 61.158 126.828 61.158 127.09Z" fill="black"/>
<path d="M70.6317 126.142C70.6317 126.404 70.4196 126.616 70.158 126.616C69.8964 126.616 69.6843 126.404 69.6843 126.142C69.6843 125.881 69.8964 125.669 70.158 125.669C70.4196 125.669 70.6317 125.881 70.6317 126.142Z" fill="black"/>
<path d="M71.1054 121.405C71.1054 121.667 70.8933 121.879 70.6317 121.879C70.3701 121.879 70.158 121.667 70.158 121.405C70.158 121.144 70.3701 120.932 70.6317 120.932C70.8933 120.932 71.1054 121.144 71.1054 121.405Z" fill="black"/>
<path d="M80.579 123.774C80.579 124.035 80.367 124.248 80.1054 124.248C79.8437 124.248 79.6317 124.035 79.6317 123.774C79.6317 123.512 79.8437 123.3 80.1054 123.3C80.367 123.3 80.579 123.512 80.579 123.774Z" fill="black"/>
<path d="M85.3159 117.142C85.3159 117.404 85.1038 117.616 84.8422 117.616C84.5806 117.616 84.3685 117.404 84.3685 117.142C84.3685 116.881 84.5806 116.669 84.8422 116.669C85.1038 116.669 85.3159 116.881 85.3159 117.142Z" fill="black"/>
<path d="M33.6843 110.511C33.6843 110.772 33.4722 110.984 33.2106 110.984C32.949 110.984 32.7369 110.772 32.7369 110.511C32.7369 110.249 32.949 110.037 33.2106 110.037C33.4722 110.037 33.6843 110.249 33.6843 110.511Z" fill="black"/>
<path d="M49.3159 118.09C49.3159 118.351 49.1038 118.563 48.8422 118.563C48.5806 118.563 48.3685 118.351 48.3685 118.09C48.3685 117.828 48.5806 117.616 48.8422 117.616C49.1038 117.616 49.3159 117.828 49.3159 118.09Z" fill="black"/>
<path d="M47.8948 127.563C47.8948 127.825 47.6828 128.037 47.4211 128.037C47.1595 128.037 46.9475 127.825 46.9475 127.563C46.9475 127.302 47.1595 127.09 47.4211 127.09C47.6828 127.09 47.8948 127.302 47.8948 127.563Z" fill="black"/>
<path d="M56.4211 129.458C56.4211 129.72 56.2091 129.932 55.9475 129.932C55.6859 129.932 55.4738 129.72 55.4738 129.458C55.4738 129.196 55.6859 128.984 55.9475 128.984C56.2091 128.984 56.4211 129.196 56.4211 129.458Z" fill="black"/>
<path d="M72.5264 117.142C72.5264 117.404 72.3143 117.616 72.0527 117.616C71.7911 117.616 71.579 117.404 71.579 117.142C71.579 116.881 71.7911 116.669 72.0527 116.669C72.3143 116.669 72.5264 116.881 72.5264 117.142Z" fill="black"/>
<path d="M79.158 119.037C79.158 119.299 78.9459 119.511 78.6843 119.511C78.4227 119.511 78.2106 119.299 78.2106 119.037C78.2106 118.775 78.4227 118.563 78.6843 118.563C78.9459 118.563 79.158 118.775 79.158 119.037Z" fill="black"/>
<path d="M75.3685 127.09C75.3685 127.351 75.1564 127.563 74.8948 127.563C74.6332 127.563 74.4211 127.351 74.4211 127.09C74.4211 126.828 74.6332 126.616 74.8948 126.616C75.1564 126.616 75.3685 126.828 75.3685 127.09Z" fill="black"/>
<path d="M82.0001 112.405C82.0001 112.667 81.788 112.879 81.5264 112.879C81.2648 112.879 81.0527 112.667 81.0527 112.405C81.0527 112.144 81.2648 111.932 81.5264 111.932C81.788 111.932 82.0001 112.144 82.0001 112.405Z" fill="black"/>
<path d="M37.9475 113.353C37.9475 113.614 37.7354 113.826 37.4738 113.826C37.2122 113.826 37.0001 113.614 37.0001 113.353C37.0001 113.091 37.2122 112.879 37.4738 112.879C37.7354 112.879 37.9475 113.091 37.9475 113.353Z" fill="black"/>
<path d="M49.3159 113.353C49.3159 113.614 49.1038 113.826 48.8422 113.826C48.5806 113.826 48.3685 113.614 48.3685 113.353C48.3685 113.091 48.5806 112.879 48.8422 112.879C49.1038 112.879 49.3159 113.091 49.3159 113.353Z" fill="black"/>
<path d="M49.3159 104.826C49.3159 105.088 49.1038 105.3 48.8422 105.3C48.5806 105.3 48.3685 105.088 48.3685 104.826C48.3685 104.565 48.5806 104.353 48.8422 104.353C49.1038 104.353 49.3159 104.565 49.3159 104.826Z" fill="black"/>
<path d="M51.2106 130.405C51.2106 130.667 50.9985 130.879 50.7369 130.879C50.4753 130.879 50.2633 130.667 50.2633 130.405C50.2633 130.144 50.4753 129.932 50.7369 129.932C50.9985 129.932 51.2106 130.144 51.2106 130.405Z" fill="black"/>
<path d="M64.0001 130.405C64.0001 130.667 63.788 130.879 63.5264 130.879C63.2648 130.879 63.0527 130.667 63.0527 130.405C63.0527 130.144 63.2648 129.932 63.5264 129.932C63.788 129.932 64.0001 130.144 64.0001 130.405Z" fill="black"/>
<path d="M69.2106 130.405C69.2106 130.667 68.9985 130.879 68.7369 130.879C68.4753 130.879 68.2633 130.667 68.2633 130.405C68.2633 130.144 68.4753 129.932 68.7369 129.932C68.9985 129.932 69.2106 130.144 69.2106 130.405Z" fill="black"/>
<path d="M77.2632 113.353C77.2632 113.614 77.0512 113.826 76.7896 113.826C76.528 113.826 76.3159 113.614 76.3159 113.353C76.3159 113.091 76.528 112.879 76.7896 112.879C77.0512 112.879 77.2632 113.091 77.2632 113.353Z" fill="black"/>
<path d="M77.2632 104.826C77.2632 105.088 77.0512 105.3 76.7896 105.3C76.528 105.3 76.3159 105.088 76.3159 104.826C76.3159 104.565 76.528 104.353 76.7896 104.353C77.0512 104.353 77.2632 104.565 77.2632 104.826Z" fill="black"/>
<path d="M86.7369 110.984C86.7369 111.246 86.5249 111.458 86.2632 111.458C86.0016 111.458 85.7896 111.246 85.7896 110.984C85.7896 110.723 86.0016 110.511 86.2632 110.511C86.5249 110.511 86.7369 110.723 86.7369 110.984Z" fill="black"/>
<path d="M39.3685 107.195C39.3685 107.456 39.1564 107.669 38.8948 107.669C38.6332 107.669 38.4211 107.456 38.4211 107.195C38.4211 106.933 38.6332 106.721 38.8948 106.721C39.1564 106.721 39.3685 106.933 39.3685 107.195Z" fill="black"/>
<path d="M44.1054 123.774C44.1054 124.035 43.8933 124.248 43.6317 124.248C43.3701 124.248 43.158 124.035 43.158 123.774C43.158 123.512 43.3701 123.3 43.6317 123.3C43.8933 123.3 44.1054 123.512 44.1054 123.774Z" fill="black"/>
<path d="M42.2106 127.09C42.2106 127.351 41.9985 127.563 41.7369 127.563C41.4753 127.563 41.2633 127.351 41.2633 127.09C41.2633 126.828 41.4753 126.616 41.7369 126.616C41.9985 126.616 42.2106 126.828 42.2106 127.09Z" fill="black"/>
<path d="M61.158 117.616C61.158 117.878 60.9459 118.09 60.6843 118.09C60.4227 118.09 60.2106 117.878 60.2106 117.616C60.2106 117.354 60.4227 117.142 60.6843 117.142C60.9459 117.142 61.158 117.354 61.158 117.616Z" fill="black"/>
<path d="M66.8422 118.563C66.8422 118.825 66.6301 119.037 66.3685 119.037C66.1069 119.037 65.8948 118.825 65.8948 118.563C65.8948 118.302 66.1069 118.09 66.3685 118.09C66.6301 118.09 66.8422 118.302 66.8422 118.563Z" fill="black"/>
<path d="M60.2106 132.774C60.2106 133.035 59.9985 133.248 59.7369 133.248C59.4753 133.248 59.2633 133.035 59.2633 132.774C59.2633 132.512 59.4753 132.3 59.7369 132.3C59.9985 132.3 60.2106 132.512 60.2106 132.774Z" fill="black"/>
<path d="M71.1054 108.616C71.1054 108.878 70.8933 109.09 70.6317 109.09C70.3701 109.09 70.158 108.878 70.158 108.616C70.158 108.354 70.3701 108.142 70.6317 108.142C70.8933 108.142 71.1054 108.354 71.1054 108.616Z" fill="black"/>
<path d="M71.1054 100.09C71.1054 100.351 70.8933 100.563 70.6317 100.563C70.3701 100.563 70.158 100.351 70.158 100.09C70.158 99.828 70.3701 99.6159 70.6317 99.6159C70.8933 99.6159 71.1054 99.828 71.1054 100.09Z" fill="black"/>
<path d="M82.4738 107.195C82.4738 107.456 82.2617 107.669 82.0001 107.669C81.7385 107.669 81.5264 107.456 81.5264 107.195C81.5264 106.933 81.7385 106.721 82.0001 106.721C82.2617 106.721 82.4738 106.933 82.4738 107.195Z" fill="black"/>
<path d="M85.7896 102.458C85.7896 102.72 85.5775 102.932 85.3159 102.932C85.0543 102.932 84.8422 102.72 84.8422 102.458C84.8422 102.196 85.0543 101.984 85.3159 101.984C85.5775 101.984 85.7896 102.196 85.7896 102.458Z" fill="black"/>
<path d="M43.6317 111.458C43.6317 111.72 43.4196 111.932 43.158 111.932C42.8964 111.932 42.6843 111.72 42.6843 111.458C42.6843 111.196 42.8964 110.984 43.158 110.984C43.4196 110.984 43.6317 111.196 43.6317 111.458Z" fill="black"/>
<path d="M43.6317 116.669C43.6317 116.93 43.4196 117.142 43.158 117.142C42.8964 117.142 42.6843 116.93 42.6843 116.669C42.6843 116.407 42.8964 116.195 43.158 116.195C43.4196 116.195 43.6317 116.407 43.6317 116.669Z" fill="black"/>
<path d="M53.579 109.563C53.579 109.825 53.367 110.037 53.1054 110.037C52.8437 110.037 52.6317 109.825 52.6317 109.563C52.6317 109.302 52.8437 109.09 53.1054 109.09C53.367 109.09 53.579 109.302 53.579 109.563Z" fill="black"/>
<path d="M53.579 101.037C53.579 101.299 53.367 101.511 53.1054 101.511C52.8437 101.511 52.6317 101.299 52.6317 101.037C52.6317 100.775 52.8437 100.563 53.1054 100.563C53.367 100.563 53.579 100.775 53.579 101.037Z" fill="black"/>
<path d="M59.2633 107.669C59.2633 107.93 59.0512 108.142 58.7896 108.142C58.528 108.142 58.3159 107.93 58.3159 107.669C58.3159 107.407 58.528 107.195 58.7896 107.195C59.0512 107.195 59.2633 107.407 59.2633 107.669Z" fill="black"/>
<path d="M64.9475 104.826C64.9475 105.088 64.7354 105.3 64.4738 105.3C64.2122 105.3 64.0001 105.088 64.0001 104.826C64.0001 104.565 64.2122 104.353 64.4738 104.353C64.7354 104.353 64.9475 104.565 64.9475 104.826Z" fill="black"/>
<path d="M71.1054 104.826C71.1054 105.088 70.8933 105.3 70.6317 105.3C70.3701 105.3 70.158 105.088 70.158 104.826C70.158 104.565 70.3701 104.353 70.6317 104.353C70.8933 104.353 71.1054 104.565 71.1054 104.826Z" fill="black"/>
<path d="M77.2632 104.826C77.2632 105.088 77.0512 105.3 76.7896 105.3C76.528 105.3 76.3159 105.088 76.3159 104.826C76.3159 104.565 76.528 104.353 76.7896 104.353C77.0512 104.353 77.2632 104.565 77.2632 104.826Z" fill="black"/>
<path d="M89.579 104.826C89.579 105.088 89.367 105.3 89.1054 105.3C88.8437 105.3 88.6317 105.088 88.6317 104.826C88.6317 104.565 88.8437 104.353 89.1054 104.353C89.367 104.353 89.579 104.565 89.579 104.826Z" fill="black"/>
<path d="M52.6317 123.774C52.6317 124.035 52.4196 124.248 52.158 124.248C51.8964 124.248 51.6843 124.035 51.6843 123.774C51.6843 123.512 51.8964 123.3 52.158 123.3C52.4196 123.3 52.6317 123.512 52.6317 123.774Z" fill="black"/>
<path d="M57.8422 120.932C57.8422 121.193 57.6301 121.405 57.3685 121.405C57.1069 121.405 56.8948 121.193 56.8948 120.932C56.8948 120.67 57.1069 120.458 57.3685 120.458C57.6301 120.458 57.8422 120.67 57.8422 120.932Z" fill="black"/>
<path d="M55.9475 117.142C55.9475 117.404 55.7354 117.616 55.4738 117.616C55.2122 117.616 55.0001 117.404 55.0001 117.142C55.0001 116.881 55.2122 116.669 55.4738 116.669C55.7354 116.669 55.9475 116.881 55.9475 117.142Z" fill="black"/>
<path d="M67.3159 112.879C67.3159 113.141 67.1038 113.353 66.8422 113.353C66.5806 113.353 66.3685 113.141 66.3685 112.879C66.3685 112.617 66.5806 112.405 66.8422 112.405C67.1038 112.405 67.3159 112.617 67.3159 112.879Z" fill="black"/>
<path d="M44.1054 104.353C44.1054 104.614 43.8933 104.826 43.6317 104.826C43.3701 104.826 43.158 104.614 43.158 104.353C43.158 104.091 43.3701 103.879 43.6317 103.879C43.8933 103.879 44.1054 104.091 44.1054 104.353Z" fill="black"/>
<path d="M61.6317 111.932C61.6317 112.193 61.4196 112.405 61.158 112.405C60.8964 112.405 60.6843 112.193 60.6843 111.932C60.6843 111.67 60.8964 111.458 61.158 111.458C61.4196 111.458 61.6317 111.67 61.6317 111.932Z" fill="black"/>
<path d="M61.6317 103.405C61.6317 103.667 61.4196 103.879 61.158 103.879C60.8964 103.879 60.6843 103.667 60.6843 103.405C60.6843 103.144 60.8964 102.932 61.158 102.932C61.4196 102.932 61.6317 103.144 61.6317 103.405Z" fill="black"/>
<path d="M78.2106 110.037C78.2106 110.299 77.9985 110.511 77.7369 110.511C77.4753 110.511 77.2632 110.299 77.2632 110.037C77.2632 109.775 77.4753 109.563 77.7369 109.563C77.9985 109.563 78.2106 109.775 78.2106 110.037Z" fill="black"/>
<path d="M78.2106 101.511C78.2106 101.772 77.9985 101.984 77.7369 101.984C77.4753 101.984 77.2632 101.772 77.2632 101.511C77.2632 101.249 77.4753 101.037 77.7369 101.037C77.9985 101.037 78.2106 101.249 78.2106 101.511Z" fill="black"/>
<path d="M81.5264 102.458C81.5264 102.72 81.3143 102.932 81.0527 102.932C80.7911 102.932 80.579 102.72 80.579 102.458C80.579 102.196 80.7911 101.984 81.0527 101.984C81.3143 101.984 81.5264 102.196 81.5264 102.458Z" fill="black"/>
<path d="M88.6317 98.1949C88.6317 98.4565 88.4196 98.6686 88.158 98.6686C87.8964 98.6686 87.6843 98.4565 87.6843 98.1949C87.6843 97.9333 87.8964 97.7212 88.158 97.7212C88.4196 97.7212 88.6317 97.9333 88.6317 98.1949Z" fill="black"/>
<path d="M38.4211 120.458C38.4211 120.72 38.2091 120.932 37.9475 120.932C37.6859 120.932 37.4738 120.72 37.4738 120.458C37.4738 120.196 37.6859 119.984 37.9475 119.984C38.2091 119.984 38.4211 120.196 38.4211 120.458Z" stroke="black" stroke-width="0.473684"/>
<path d="M63.0527 123.774C63.0527 124.035 62.8406 124.248 62.579 124.248C62.3174 124.248 62.1054 124.035 62.1054 123.774C62.1054 123.512 62.3174 123.3 62.579 123.3C62.8406 123.3 63.0527 123.512 63.0527 123.774Z" stroke="black" stroke-width="0.473684"/>
<path d="M61.158 127.09C61.158 127.351 60.9459 127.563 60.6843 127.563C60.4227 127.563 60.2106 127.351 60.2106 127.09C60.2106 126.828 60.4227 126.616 60.6843 126.616C60.9459 126.616 61.158 126.828 61.158 127.09Z" stroke="black" stroke-width="0.473684"/>
<path d="M70.6317 126.142C70.6317 126.404 70.4196 126.616 70.158 126.616C69.8964 126.616 69.6843 126.404 69.6843 126.142C69.6843 125.881 69.8964 125.669 70.158 125.669C70.4196 125.669 70.6317 125.881 70.6317 126.142Z" stroke="black" stroke-width="0.473684"/>
<path d="M71.1054 121.405C71.1054 121.667 70.8933 121.879 70.6317 121.879C70.3701 121.879 70.158 121.667 70.158 121.405C70.158 121.144 70.3701 120.932 70.6317 120.932C70.8933 120.932 71.1054 121.144 71.1054 121.405Z" stroke="black" stroke-width="0.473684"/>
<path d="M80.579 123.774C80.579 124.035 80.367 124.248 80.1054 124.248C79.8437 124.248 79.6317 124.035 79.6317 123.774C79.6317 123.512 79.8437 123.3 80.1054 123.3C80.367 123.3 80.579 123.512 80.579 123.774Z" stroke="black" stroke-width="0.473684"/>
<path d="M85.3159 117.142C85.3159 117.404 85.1038 117.616 84.8422 117.616C84.5806 117.616 84.3685 117.404 84.3685 117.142C84.3685 116.881 84.5806 116.669 84.8422 116.669C85.1038 116.669 85.3159 116.881 85.3159 117.142Z" stroke="black" stroke-width="0.473684"/>
<path d="M33.6843 110.511C33.6843 110.772 33.4722 110.984 33.2106 110.984C32.949 110.984 32.7369 110.772 32.7369 110.511C32.7369 110.249 32.949 110.037 33.2106 110.037C33.4722 110.037 33.6843 110.249 33.6843 110.511Z" stroke="black" stroke-width="0.473684"/>
<path d="M49.3159 118.09C49.3159 118.351 49.1038 118.563 48.8422 118.563C48.5806 118.563 48.3685 118.351 48.3685 118.09C48.3685 117.828 48.5806 117.616 48.8422 117.616C49.1038 117.616 49.3159 117.828 49.3159 118.09Z" stroke="black" stroke-width="0.473684"/>
<path d="M47.8948 127.563C47.8948 127.825 47.6828 128.037 47.4211 128.037C47.1595 128.037 46.9475 127.825 46.9475 127.563C46.9475 127.302 47.1595 127.09 47.4211 127.09C47.6828 127.09 47.8948 127.302 47.8948 127.563Z" stroke="black" stroke-width="0.473684"/>
<path d="M56.4211 129.458C56.4211 129.72 56.2091 129.932 55.9475 129.932C55.6859 129.932 55.4738 129.72 55.4738 129.458C55.4738 129.196 55.6859 128.984 55.9475 128.984C56.2091 128.984 56.4211 129.196 56.4211 129.458Z" stroke="black" stroke-width="0.473684"/>
<path d="M72.5264 117.142C72.5264 117.404 72.3143 117.616 72.0527 117.616C71.7911 117.616 71.579 117.404 71.579 117.142C71.579 116.881 71.7911 116.669 72.0527 116.669C72.3143 116.669 72.5264 116.881 72.5264 117.142Z" stroke="black" stroke-width="0.473684"/>
<path d="M79.158 119.037C79.158 119.299 78.9459 119.511 78.6843 119.511C78.4227 119.511 78.2106 119.299 78.2106 119.037C78.2106 118.775 78.4227 118.563 78.6843 118.563C78.9459 118.563 79.158 118.775 79.158 119.037Z" stroke="black" stroke-width="0.473684"/>
<path d="M75.3685 127.09C75.3685 127.351 75.1564 127.563 74.8948 127.563C74.6332 127.563 74.4211 127.351 74.4211 127.09C74.4211 126.828 74.6332 126.616 74.8948 126.616C75.1564 126.616 75.3685 126.828 75.3685 127.09Z" stroke="black" stroke-width="0.473684"/>
<path d="M82.0001 112.405C82.0001 112.667 81.788 112.879 81.5264 112.879C81.2648 112.879 81.0527 112.667 81.0527 112.405C81.0527 112.144 81.2648 111.932 81.5264 111.932C81.788 111.932 82.0001 112.144 82.0001 112.405Z" stroke="black" stroke-width="0.473684"/>
<path d="M37.9475 113.353C37.9475 113.614 37.7354 113.826 37.4738 113.826C37.2122 113.826 37.0001 113.614 37.0001 113.353C37.0001 113.091 37.2122 112.879 37.4738 112.879C37.7354 112.879 37.9475 113.091 37.9475 113.353Z" stroke="black" stroke-width="0.473684"/>
<path d="M49.3159 113.353C49.3159 113.614 49.1038 113.826 48.8422 113.826C48.5806 113.826 48.3685 113.614 48.3685 113.353C48.3685 113.091 48.5806 112.879 48.8422 112.879C49.1038 112.879 49.3159 113.091 49.3159 113.353Z" stroke="black" stroke-width="0.473684"/>
<path d="M49.3159 104.826C49.3159 105.088 49.1038 105.3 48.8422 105.3C48.5806 105.3 48.3685 105.088 48.3685 104.826C48.3685 104.565 48.5806 104.353 48.8422 104.353C49.1038 104.353 49.3159 104.565 49.3159 104.826Z" stroke="black" stroke-width="0.473684"/>
<path d="M51.2106 130.405C51.2106 130.667 50.9985 130.879 50.7369 130.879C50.4753 130.879 50.2633 130.667 50.2633 130.405C50.2633 130.144 50.4753 129.932 50.7369 129.932C50.9985 129.932 51.2106 130.144 51.2106 130.405Z" stroke="black" stroke-width="0.473684"/>
<path d="M64.0001 130.405C64.0001 130.667 63.788 130.879 63.5264 130.879C63.2648 130.879 63.0527 130.667 63.0527 130.405C63.0527 130.144 63.2648 129.932 63.5264 129.932C63.788 129.932 64.0001 130.144 64.0001 130.405Z" stroke="black" stroke-width="0.473684"/>
<path d="M69.2106 130.405C69.2106 130.667 68.9985 130.879 68.7369 130.879C68.4753 130.879 68.2633 130.667 68.2633 130.405C68.2633 130.144 68.4753 129.932 68.7369 129.932C68.9985 129.932 69.2106 130.144 69.2106 130.405Z" stroke="black" stroke-width="0.473684"/>
<path d="M77.2632 113.353C77.2632 113.614 77.0512 113.826 76.7896 113.826C76.528 113.826 76.3159 113.614 76.3159 113.353C76.3159 113.091 76.528 112.879 76.7896 112.879C77.0512 112.879 77.2632 113.091 77.2632 113.353Z" stroke="black" stroke-width="0.473684"/>
<path d="M77.2632 104.826C77.2632 105.088 77.0512 105.3 76.7896 105.3C76.528 105.3 76.3159 105.088 76.3159 104.826C76.3159 104.565 76.528 104.353 76.7896 104.353C77.0512 104.353 77.2632 104.565 77.2632 104.826Z" stroke="black" stroke-width="0.473684"/>
<path d="M86.7369 110.984C86.7369 111.246 86.5249 111.458 86.2632 111.458C86.0016 111.458 85.7896 111.246 85.7896 110.984C85.7896 110.723 86.0016 110.511 86.2632 110.511C86.5249 110.511 86.7369 110.723 86.7369 110.984Z" stroke="black" stroke-width="0.473684"/>
<path d="M39.3685 107.195C39.3685 107.456 39.1564 107.669 38.8948 107.669C38.6332 107.669 38.4211 107.456 38.4211 107.195C38.4211 106.933 38.6332 106.721 38.8948 106.721C39.1564 106.721 39.3685 106.933 39.3685 107.195Z" stroke="black" stroke-width="0.473684"/>
<path d="M44.1054 123.774C44.1054 124.035 43.8933 124.248 43.6317 124.248C43.3701 124.248 43.158 124.035 43.158 123.774C43.158 123.512 43.3701 123.3 43.6317 123.3C43.8933 123.3 44.1054 123.512 44.1054 123.774Z" stroke="black" stroke-width="0.473684"/>
<path d="M42.2106 127.09C42.2106 127.351 41.9985 127.563 41.7369 127.563C41.4753 127.563 41.2633 127.351 41.2633 127.09C41.2633 126.828 41.4753 126.616 41.7369 126.616C41.9985 126.616 42.2106 126.828 42.2106 127.09Z" stroke="black" stroke-width="0.473684"/>
<path d="M61.158 117.616C61.158 117.878 60.9459 118.09 60.6843 118.09C60.4227 118.09 60.2106 117.878 60.2106 117.616C60.2106 117.354 60.4227 117.142 60.6843 117.142C60.9459 117.142 61.158 117.354 61.158 117.616Z" stroke="black" stroke-width="0.473684"/>
<path d="M66.8422 118.563C66.8422 118.825 66.6301 119.037 66.3685 119.037C66.1069 119.037 65.8948 118.825 65.8948 118.563C65.8948 118.302 66.1069 118.09 66.3685 118.09C66.6301 118.09 66.8422 118.302 66.8422 118.563Z" stroke="black" stroke-width="0.473684"/>
<path d="M60.2106 132.774C60.2106 133.035 59.9985 133.248 59.7369 133.248C59.4753 133.248 59.2633 133.035 59.2633 132.774C59.2633 132.512 59.4753 132.3 59.7369 132.3C59.9985 132.3 60.2106 132.512 60.2106 132.774Z" stroke="black" stroke-width="0.473684"/>
<path d="M71.1054 108.616C71.1054 108.878 70.8933 109.09 70.6317 109.09C70.3701 109.09 70.158 108.878 70.158 108.616C70.158 108.354 70.3701 108.142 70.6317 108.142C70.8933 108.142 71.1054 108.354 71.1054 108.616Z" stroke="black" stroke-width="0.473684"/>
<path d="M71.1054 100.09C71.1054 100.351 70.8933 100.563 70.6317 100.563C70.3701 100.563 70.158 100.351 70.158 100.09C70.158 99.828 70.3701 99.6159 70.6317 99.6159C70.8933 99.6159 71.1054 99.828 71.1054 100.09Z" stroke="black" stroke-width="0.473684"/>
<path d="M82.4738 107.195C82.4738 107.456 82.2617 107.669 82.0001 107.669C81.7385 107.669 81.5264 107.456 81.5264 107.195C81.5264 106.933 81.7385 106.721 82.0001 106.721C82.2617 106.721 82.4738 106.933 82.4738 107.195Z" stroke="black" stroke-width="0.473684"/>
<path d="M85.7896 102.458C85.7896 102.72 85.5775 102.932 85.3159 102.932C85.0543 102.932 84.8422 102.72 84.8422 102.458C84.8422 102.196 85.0543 101.984 85.3159 101.984C85.5775 101.984 85.7896 102.196 85.7896 102.458Z" stroke="black" stroke-width="0.473684"/>
<path d="M43.6317 111.458C43.6317 111.72 43.4196 111.932 43.158 111.932C42.8964 111.932 42.6843 111.72 42.6843 111.458C42.6843 111.196 42.8964 110.984 43.158 110.984C43.4196 110.984 43.6317 111.196 43.6317 111.458Z" stroke="black" stroke-width="0.473684"/>
<path d="M43.6317 116.669C43.6317 116.93 43.4196 117.142 43.158 117.142C42.8964 117.142 42.6843 116.93 42.6843 116.669C42.6843 116.407 42.8964 116.195 43.158 116.195C43.4196 116.195 43.6317 116.407 43.6317 116.669Z" stroke="black" stroke-width="0.473684"/>
<path d="M53.579 109.563C53.579 109.825 53.367 110.037 53.1054 110.037C52.8437 110.037 52.6317 109.825 52.6317 109.563C52.6317 109.302 52.8437 109.09 53.1054 109.09C53.367 109.09 53.579 109.302 53.579 109.563Z" stroke="black" stroke-width="0.473684"/>
<path d="M53.579 101.037C53.579 101.299 53.367 101.511 53.1054 101.511C52.8437 101.511 52.6317 101.299 52.6317 101.037C52.6317 100.775 52.8437 100.563 53.1054 100.563C53.367 100.563 53.579 100.775 53.579 101.037Z" stroke="black" stroke-width="0.473684"/>
<path d="M59.2633 107.669C59.2633 107.93 59.0512 108.142 58.7896 108.142C58.528 108.142 58.3159 107.93 58.3159 107.669C58.3159 107.407 58.528 107.195 58.7896 107.195C59.0512 107.195 59.2633 107.407 59.2633 107.669Z" stroke="black" stroke-width="0.473684"/>
<path d="M64.9475 104.826C64.9475 105.088 64.7354 105.3 64.4738 105.3C64.2122 105.3 64.0001 105.088 64.0001 104.826C64.0001 104.565 64.2122 104.353 64.4738 104.353C64.7354 104.353 64.9475 104.565 64.9475 104.826Z" stroke="black" stroke-width="0.473684"/>
<path d="M71.1054 104.826C71.1054 105.088 70.8933 105.3 70.6317 105.3C70.3701 105.3 70.158 105.088 70.158 104.826C70.158 104.565 70.3701 104.353 70.6317 104.353C70.8933 104.353 71.1054 104.565 71.1054 104.826Z" stroke="black" stroke-width="0.473684"/>
<path d="M77.2632 104.826C77.2632 105.088 77.0512 105.3 76.7896 105.3C76.528 105.3 76.3159 105.088 76.3159 104.826C76.3159 104.565 76.528 104.353 76.7896 104.353C77.0512 104.353 77.2632 104.565 77.2632 104.826Z" stroke="black" stroke-width="0.473684"/>
<path d="M89.579 104.826C89.579 105.088 89.367 105.3 89.1054 105.3C88.8437 105.3 88.6317 105.088 88.6317 104.826C88.6317 104.565 88.8437 104.353 89.1054 104.353C89.367 104.353 89.579 104.565 89.579 104.826Z" stroke="black" stroke-width="0.473684"/>
<path d="M52.6317 123.774C52.6317 124.035 52.4196 124.248 52.158 124.248C51.8964 124.248 51.6843 124.035 51.6843 123.774C51.6843 123.512 51.8964 123.3 52.158 123.3C52.4196 123.3 52.6317 123.512 52.6317 123.774Z" stroke="black" stroke-width="0.473684"/>
<path d="M57.8422 120.932C57.8422 121.193 57.6301 121.405 57.3685 121.405C57.1069 121.405 56.8948 121.193 56.8948 120.932C56.8948 120.67 57.1069 120.458 57.3685 120.458C57.6301 120.458 57.8422 120.67 57.8422 120.932Z" stroke="black" stroke-width="0.473684"/>
<path d="M55.9475 117.142C55.9475 117.404 55.7354 117.616 55.4738 117.616C55.2122 117.616 55.0001 117.404 55.0001 117.142C55.0001 116.881 55.2122 116.669 55.4738 116.669C55.7354 116.669 55.9475 116.881 55.9475 117.142Z" stroke="black" stroke-width="0.473684"/>
<path d="M67.3159 112.879C67.3159 113.141 67.1038 113.353 66.8422 113.353C66.5806 113.353 66.3685 113.141 66.3685 112.879C66.3685 112.617 66.5806 112.405 66.8422 112.405C67.1038 112.405 67.3159 112.617 67.3159 112.879Z" stroke="black" stroke-width="0.473684"/>
<path d="M44.1054 104.353C44.1054 104.614 43.8933 104.826 43.6317 104.826C43.3701 104.826 43.158 104.614 43.158 104.353C43.158 104.091 43.3701 103.879 43.6317 103.879C43.8933 103.879 44.1054 104.091 44.1054 104.353Z" stroke="black" stroke-width="0.473684"/>
<path d="M61.6317 111.932C61.6317 112.193 61.4196 112.405 61.158 112.405C60.8964 112.405 60.6843 112.193 60.6843 111.932C60.6843 111.67 60.8964 111.458 61.158 111.458C61.4196 111.458 61.6317 111.67 61.6317 111.932Z" stroke="black" stroke-width="0.473684"/>
<path d="M61.6317 103.405C61.6317 103.667 61.4196 103.879 61.158 103.879C60.8964 103.879 60.6843 103.667 60.6843 103.405C60.6843 103.144 60.8964 102.932 61.158 102.932C61.4196 102.932 61.6317 103.144 61.6317 103.405Z" stroke="black" stroke-width="0.473684"/>
<path d="M78.2106 110.037C78.2106 110.299 77.9985 110.511 77.7369 110.511C77.4753 110.511 77.2632 110.299 77.2632 110.037C77.2632 109.775 77.4753 109.563 77.7369 109.563C77.9985 109.563 78.2106 109.775 78.2106 110.037Z" stroke="black" stroke-width="0.473684"/>
<path d="M78.2106 101.511C78.2106 101.772 77.9985 101.984 77.7369 101.984C77.4753 101.984 77.2632 101.772 77.2632 101.511C77.2632 101.249 77.4753 101.037 77.7369 101.037C77.9985 101.037 78.2106 101.249 78.2106 101.511Z" stroke="black" stroke-width="0.473684"/>
<path d="M81.5264 102.458C81.5264 102.72 81.3143 102.932 81.0527 102.932C80.7911 102.932 80.579 102.72 80.579 102.458C80.579 102.196 80.7911 101.984 81.0527 101.984C81.3143 101.984 81.5264 102.196 81.5264 102.458Z" stroke="black" stroke-width="0.473684"/>
<path d="M88.6317 98.1949C88.6317 98.4565 88.4196 98.6686 88.158 98.6686C87.8964 98.6686 87.6843 98.4565 87.6843 98.1949C87.6843 97.9333 87.8964 97.7212 88.158 97.7212C88.4196 97.7212 88.6317 97.9333 88.6317 98.1949Z" stroke="black" stroke-width="0.473684"/>
</g>
<path d="M55 107.605C57.3402 110.658 60.8865 114.042 66.3571 113.27C71.8277 112.499 74.2617 108.725 73.5441 105.669" stroke="black" stroke-width="1.89474"/>
<path d="M34.6316 70.3422C37.5526 71.5264 44.6263 71.7633 49.5526 63.237" stroke="black" stroke-width="1.89474" stroke-linecap="round"/>
<path d="M66.3684 59.6843C68.8158 62.2107 74.9421 65.7475 79.8684 59.6843" stroke="black" stroke-width="1.89474" stroke-linecap="round"/>
<path d="M59.2632 41.2104C66.2106 40.8947 78.4001 37.042 71.579 24.1578" stroke="black" stroke-width="1.89474"/>
<path d="M46.9474 40.2631C53.8948 39.9473 66.0843 36.0947 59.2632 23.2104" stroke="black" stroke-width="1.89474"/>
<path d="M29.8948 45.4736C36.8422 45.1578 49.0317 41.3052 42.2106 28.421" stroke="black" stroke-width="1.89474"/>
<ellipse cx="44.83" cy="79.77" rx="4.26316" ry="6.39474" transform="rotate(-6.77646 44.83 79.77)" fill="black"/>
<ellipse cx="75.1459" cy="75.033" rx="4.26316" ry="6.39474" transform="rotate(-6.27568 75.1459 75.033)" fill="black"/>
<path d="M33.2195 79.9171L17.5789 82.7019" stroke="black" stroke-width="1.89474" stroke-linecap="round"/>
<path d="M31.5693 73.416C31.1236 71.7728 32.2101 70.139 33.8944 69.9195L51.0616 67.6825C52.6181 67.4797 54.0706 68.5733 54.3058 70.1252L56.7033 85.9419C56.9385 87.4938 55.8674 88.9163 54.3109 89.1191L38.9714 91.118C37.5397 91.3045 36.1733 90.3912 35.7944 88.9944L31.5693 73.416Z" stroke="black" stroke-width="1.89474"/>
<path d="M86.8027 66.3054C86.7426 64.612 85.2126 63.3191 83.5283 63.5386L66.361 65.7756C64.8045 65.9785 63.7334 67.401 63.9687 68.9529L66.3661 84.7695C66.6013 86.3214 68.0538 87.4151 69.6103 87.2123L84.9499 85.2134C86.3815 85.0268 87.4235 83.7997 87.3724 82.3602L86.8027 66.3054Z" stroke="black" stroke-width="1.89474"/>
<path d="M55.4335 77.6578L65.4072 76.1866" stroke="black" stroke-width="1.89474"/>
<path d="M61.5705 79.5698C62.4934 86.1368 66.5021 90.8352 66.5021 90.8352C66.5021 90.8352 65.2559 93.8804 60.4333 93.6014" stroke="black" stroke-width="1.89474"/>
<path d="M23.9737 85.3464C22.87 84.983 21.6786 84.7895 20.459 84.7895C15.4884 84.7895 11.459 87.8685 11.9327 93.5527C12.4261 99.4737 15.9621 101.605 20.9327 101.605C21.4857 101.605 22.0272 101.557 22.5527 101.464C23.1261 101.362 23.6806 101.208 24.2106 101.006" stroke="black" stroke-width="3.78947"/>
<path d="M24.4474 100.912C23.3676 101.358 22.1798 101.605 20.9327 101.605C15.9621 101.605 12.4261 99.4737 11.9327 93.5527C11.459 87.8685 15.4884 84.7895 20.459 84.7895C21.9452 84.7895 23.3895 85.0768 24.6842 85.6088L24.4474 100.912Z" fill="#F9C9B6"/>
<path d="M22.5527 88.8161C20.658 87.9476 16.4895 87.4897 14.9738 92.6055" stroke="black" stroke-width="1.89474"/>
<path d="M17.579 89.0527C18.6053 89.9211 20.5632 92.6053 20.1842 96.3948" stroke="black" stroke-width="1.89474"/>
<path d="M73.7353 156.529L73.8016 156.544L73.8694 156.55C95.7183 158.352 108.82 168.056 118.328 181.421H-11.1384C-3.41754 167.523 7.56419 158.676 25.3684 154.617C32.9537 152.887 41.7902 152.024 52.1578 152.024C56.6368 152.024 60.1222 152.708 63.4297 153.609C64.655 153.943 65.8865 154.318 67.1464 154.7C69.2317 155.334 71.3947 155.991 73.7353 156.529Z" fill="#F4D150" stroke="black" stroke-width="1.89474"/>
<path d="M19.914 155.644L24.2497 146.361C24.3533 146.14 24.6106 146.034 24.8413 146.116C42.8065 152.475 59.1498 152.027 74.2956 147.811C74.4862 147.758 74.6899 147.828 74.8067 147.988L81.4062 157.013C81.5876 157.261 81.4952 157.611 81.2091 157.723C65.2899 163.974 35.4188 162.911 20.1436 156.271C19.9013 156.165 19.8022 155.883 19.914 155.644Z" fill="white" stroke="black" stroke-width="1.89474"/>
<defs>
<clipPath id="clip0_5_21891">
<rect width="94.7368" height="151.579" fill="white" transform="translate(7.63165 20.3686)"/>
</clipPath>
</defs>
</svg>
