<svg width="131" height="131" viewBox="0 0 131 131" fill="none" xmlns="http://www.w3.org/2000/svg">
<circle cx="64.4083" cy="64.4083" r="64.4083" fill="#E0DDFF"/>
<path d="M83.3858 127.739C78.5044 120.959 74.6851 104.462 74.2331 97.908L51.0122 87.9076L41.3509 127.739H83.3858Z" fill="#FC909F" stroke="black" stroke-width="1.35596"/>
<mask id="mask0_5_21877" style="mask-type:alpha" maskUnits="userSpaceOnUse" x="41" y="87" width="43" height="41">
<path d="M83.3858 127.739C78.5044 120.959 74.6851 104.462 74.2331 97.908L51.0122 87.9076L41.3509 127.739H83.3858Z" fill="#FFEDEF"/>
</mask>
<g mask="url(#mask0_5_21877)">
<ellipse cx="73.2335" cy="87.2301" rx="20.0005" ry="18.3055" fill="black"/>
</g>
<g clip-path="url(#clip0_5_21877)">
<path d="M83.2298 123.132C78.3484 116.352 74.5291 103.244 74.0771 96.6903L50.8562 86.69L41.1949 123.132H83.2298Z" fill="#77311D" stroke="black" stroke-width="1.35596"/>
<mask id="mask1_5_21877" style="mask-type:alpha" maskUnits="userSpaceOnUse" x="41" y="86" width="43" height="41">
<path d="M83.2298 126.522C78.3484 119.742 74.5291 103.244 74.0771 96.6903L50.8562 86.69L41.1949 126.522H83.2298Z" fill="#AC6651"/>
</mask>
<g mask="url(#mask1_5_21877)">
<g style="mix-blend-mode:multiply">
<ellipse cx="73.0601" cy="86.012" rx="20.0005" ry="18.3055" fill="black"/>
</g>
</g>
<mask id="path-8-inside-1_5_21877" fill="white">
<path fill-rule="evenodd" clip-rule="evenodd" d="M93.3612 65.9837C93.352 65.9444 93.3427 65.9051 93.3332 65.8657C93.3238 65.8264 93.3143 65.7871 93.3047 65.7479L87.7465 42.5493C87.741 42.5261 87.7355 42.5029 87.7299 42.4796C87.7244 42.4564 87.7188 42.4332 87.7132 42.41L87.6887 42.3078L87.6882 42.3079C84.2244 28.2585 70.0625 19.6198 55.9692 22.9965C41.8759 26.3731 33.1664 40.4916 36.4454 54.5853L36.4447 54.5854L42.2046 78.626L42.2093 78.6248C45.8036 92.4911 59.8606 100.978 73.8501 97.6265C87.8395 94.2748 96.5242 80.3389 93.4444 66.3494L93.4486 66.3484L93.3612 65.9837Z"/>
</mask>
<path fill-rule="evenodd" clip-rule="evenodd" d="M93.3612 65.9837C93.352 65.9444 93.3427 65.9051 93.3332 65.8657C93.3238 65.8264 93.3143 65.7871 93.3047 65.7479L87.7465 42.5493C87.741 42.5261 87.7355 42.5029 87.7299 42.4796C87.7244 42.4564 87.7188 42.4332 87.7132 42.41L87.6887 42.3078L87.6882 42.3079C84.2244 28.2585 70.0625 19.6198 55.9692 22.9965C41.8759 26.3731 33.1664 40.4916 36.4454 54.5853L36.4447 54.5854L42.2046 78.626L42.2093 78.6248C45.8036 92.4911 59.8606 100.978 73.8501 97.6265C87.8395 94.2748 96.5242 80.3389 93.4444 66.3494L93.4486 66.3484L93.3612 65.9837Z" fill="#77311D"/>
<path d="M93.3612 65.9837L92.0412 66.2937L92.0426 66.2996L93.3612 65.9837ZM93.3047 65.7479L91.9861 66.0638L91.9875 66.0698L93.3047 65.7479ZM87.7465 42.5493L86.427 42.8617L86.4279 42.8652L87.7465 42.5493ZM87.7299 42.4796L86.4113 42.7956L86.4113 42.7957L87.7299 42.4796ZM87.7132 42.41L86.3945 42.726L86.3954 42.7295L87.7132 42.41ZM87.6887 42.3078L89.0073 41.9919L88.6919 40.6754L87.3749 40.9887L87.6887 42.3078ZM87.6882 42.3079L86.3717 42.6325L86.6936 43.9384L88.002 43.6271L87.6882 42.3079ZM36.4454 54.5853L36.7597 55.9043L38.0717 55.5917L37.7661 54.278L36.4454 54.5853ZM36.4447 54.5854L36.1304 53.2664L34.8097 53.5811L35.1261 54.9014L36.4447 54.5854ZM42.2046 78.626L40.886 78.9419L41.2018 80.2601L42.5201 79.9447L42.2046 78.626ZM42.2093 78.6248L43.5219 78.2846L43.188 76.9965L41.8939 77.3061L42.2093 78.6248ZM73.8501 97.6265L74.166 98.9452V98.9452L73.8501 97.6265ZM93.4444 66.3494L93.1285 65.0307L91.8339 65.3408L92.1201 66.6409L93.4444 66.3494ZM93.4486 66.3484L93.7644 67.667L95.0832 67.3512L94.7672 66.0324L93.4486 66.3484ZM94.6813 65.6737C94.6716 65.6324 94.6618 65.5911 94.6519 65.5498L92.0146 66.1817C92.0235 66.219 92.0324 66.2564 92.0412 66.2937L94.6813 65.6737ZM94.6519 65.5498C94.642 65.5086 94.632 65.4673 94.6219 65.426L91.9875 66.0698C91.9966 66.107 92.0056 66.1443 92.0146 66.1817L94.6519 65.5498ZM86.4279 42.8652L91.9861 66.0638L94.6234 65.432L89.0652 42.2334L86.4279 42.8652ZM89.066 42.237C89.0603 42.2125 89.0544 42.1881 89.0486 42.1636L86.4113 42.7957C86.4166 42.8177 86.4218 42.8396 86.427 42.8617L89.066 42.237ZM89.0486 42.1637C89.0428 42.1393 89.0369 42.115 89.031 42.0906L86.3954 42.7295C86.4007 42.7514 86.406 42.7735 86.4113 42.7956L89.0486 42.1637ZM86.37 42.6238L86.3945 42.726L89.0318 42.0941L89.0073 41.9919L86.37 42.6238ZM88.002 43.6271L88.0025 43.627L87.3749 40.9887L87.3744 40.9888L88.002 43.6271ZM89.0048 41.9834C85.3626 27.2107 70.4719 18.1274 55.6532 21.6778L56.2851 24.3151C69.653 21.1123 83.0861 29.3064 86.3717 42.6325L89.0048 41.9834ZM55.6532 21.6778C40.8346 25.2282 31.6769 40.0733 35.1247 54.8925L37.7661 54.278C34.6559 40.9099 42.9172 27.518 56.2851 24.3151L55.6532 21.6778ZM36.759 55.9045L36.7597 55.9043L36.1311 53.2662L36.1304 53.2664L36.759 55.9045ZM43.5233 78.31L37.7634 54.2695L35.1261 54.9014L40.886 78.9419L43.5233 78.31ZM41.8939 77.3061L41.8892 77.3072L42.5201 79.9447L42.5248 79.9436L41.8939 77.3061ZM40.8968 78.9651C44.6762 93.5455 59.4565 102.469 74.166 98.9452L73.5341 96.3079C60.2648 99.4871 46.9311 91.4368 43.5219 78.2846L40.8968 78.9651ZM74.166 98.9452C88.8755 95.4209 98.007 80.7679 94.7687 66.0578L92.1201 66.6409C95.0413 79.91 86.8034 93.1287 73.5341 96.3079L74.166 98.9452ZM93.1327 65.0297L93.1285 65.0307L93.7603 67.668L93.7644 67.667L93.1327 65.0297ZM92.0426 66.2996L92.1299 66.6643L94.7672 66.0324L94.6799 65.6678L92.0426 66.2996Z" fill="black" mask="url(#path-8-inside-1_5_21877)"/>
</g>
<path d="M83.7204 74.5004C83.6627 73.7995 82.9461 73.4092 82.3388 73.6485L82.5873 74.2793L82.3388 73.6485C80.9053 74.2134 76.163 76.0099 72.8192 76.4698C69.1504 76.9745 63.5944 76.3616 61.9862 76.1619C61.3322 76.0807 60.7492 76.6427 60.8621 77.3258C61.083 78.6624 61.538 79.9508 62.2074 81.1313C62.9539 82.448 63.9525 83.6047 65.146 84.5355C66.3396 85.4662 67.7048 86.1528 69.1637 86.5559C70.6226 86.959 72.1467 87.0709 73.6488 86.885C75.1509 86.6992 76.6017 86.2193 77.9184 85.4728C79.235 84.7262 80.3918 83.7277 81.3225 82.5341C82.2533 81.3405 82.9398 79.9753 83.3429 78.5164C83.7042 77.2091 83.8315 75.8496 83.7204 74.5004Z" fill="#171921" stroke="#171921" stroke-width="1.35596"/>
<mask id="mask2_5_21877" style="mask-type:alpha" maskUnits="userSpaceOnUse" x="61" y="74" width="23" height="13">
<path d="M82.9992 74.1146C83.1741 75.5284 83.0689 76.9627 82.6895 78.3358C82.31 79.7089 81.6639 80.9938 80.7879 82.1172C79.9119 83.2405 78.8232 84.1804 77.584 84.883C76.3448 85.5856 74.9793 86.0373 73.5655 86.2122C72.1518 86.3871 70.7174 86.2818 69.3443 85.9024C67.9712 85.523 66.6863 84.8768 65.563 84.0008C64.4396 83.1248 63.4998 82.0361 62.7972 80.7969C62.0945 79.5577 61.6429 78.1922 61.468 76.7785L82.9992 74.1146Z" fill="#171921"/>
</mask>
<g mask="url(#mask2_5_21877)">
<circle cx="73.7545" cy="87.7156" r="7.28831" transform="rotate(-7.05286 73.7545 87.7156)" fill="#FC909F"/>
</g>
<path d="M67.7981 29.6703C72.77 29.4443 81.4934 26.6872 76.6119 17.4666" stroke="black" stroke-width="1.35596"/>
<path d="M58.9843 28.9923C63.9562 28.7663 72.6796 26.0092 67.7981 16.7886" stroke="black" stroke-width="1.35596"/>
<path d="M46.7807 32.7212C51.7525 32.4952 60.4759 29.7381 55.5944 20.5175" stroke="black" stroke-width="1.35596"/>
<path d="M74.9284 45.5206C76.8494 44.6166 81.3693 43.7918 84.0812 47.724" stroke="#FC909F" stroke-width="1.35596" stroke-linecap="round"/>
<path d="M49.3614 54.0994C50.0633 52.0957 52.6436 48.2941 57.349 49.1167" stroke="#FC909F" stroke-width="1.35596" stroke-linecap="round"/>
<path d="M50.2072 52.044L48.123 50.2044" stroke="#FC909F" stroke-width="1.35596" stroke-linecap="round"/>
<path d="M83.051 45.8402L85.1353 44.0006" stroke="#FC909F" stroke-width="1.35596" stroke-linecap="round"/>
<path d="M52.3934 50.1309L51.0216 47.713" stroke="#FC909F" stroke-width="1.35596" stroke-linecap="round"/>
<path d="M80.5258 44.6051L81.8976 42.1872" stroke="#FC909F" stroke-width="1.35596" stroke-linecap="round"/>
<path d="M55.1312 48.9059L54.385 46.2279" stroke="#FC909F" stroke-width="1.35596" stroke-linecap="round"/>
<path d="M77.4491 44.397L78.1952 41.7191" stroke="#FC909F" stroke-width="1.35596" stroke-linecap="round"/>
<path d="M62.1022 56.0402C62.732 58.1968 60.3945 56.541 58.2379 57.1708C56.0814 57.8006 54.9224 60.4775 54.2926 58.3209C53.6628 56.1644 54.9005 53.9056 57.057 53.2758C59.2136 52.646 61.4723 53.8837 62.1022 56.0402Z" fill="#6BD9E9"/>
<path d="M83.7268 52.9239C84.281 55.1011 82.1358 53.4392 79.9586 53.9934C77.7813 54.5476 76.3966 57.1079 75.8424 54.9307C75.2883 52.7535 76.604 50.5393 78.7813 49.9851C80.9585 49.4309 83.1727 50.7467 83.7268 52.9239Z" fill="#6BD9E9"/>
<path fill-rule="evenodd" clip-rule="evenodd" d="M54.9203 59.3329C54.959 59.6084 55.3093 59.6698 55.504 59.4711C56.3397 58.6182 57.6244 57.9916 59.1157 57.8144C59.9953 57.7099 60.8417 57.7742 61.5957 57.9745C61.8513 58.0424 62.1025 57.8266 62.0133 57.5777C61.4487 56.0029 59.8553 54.9678 58.1234 55.1736C56.1094 55.4129 54.6707 57.2396 54.91 59.2536C54.9132 59.2801 54.9166 59.3065 54.9203 59.3329Z" fill="black"/>
<path fill-rule="evenodd" clip-rule="evenodd" d="M76.649 55.943C76.6873 56.2186 77.0375 56.2802 77.2326 56.0817C78.0605 55.239 79.3314 54.6201 80.8063 54.4449C81.6756 54.3416 82.5121 54.4047 83.2577 54.602C83.5134 54.6696 83.7646 54.4538 83.6749 54.205C83.114 52.6479 81.537 51.625 79.8231 51.8286C77.8279 52.0657 76.4026 53.8754 76.6397 55.8706C76.6426 55.8948 76.6457 55.919 76.649 55.943Z" fill="black"/>
<path d="M70.719 59.7699C70.788 61.0725 71.2946 63.8654 72.7695 64.6166C74.6131 65.5556 73.1678 68.6685 69.7165 68.4689" stroke="black" stroke-width="1.35596"/>
<path d="M82.482 124.677C82.3164 124.667 82.1786 124.657 82.0699 124.648C79.9848 121.465 78.0851 116.215 76.6132 110.821C75.1821 105.577 74.1772 100.282 73.7995 96.7839C86.367 93.1504 94.2443 80.1795 92.3504 66.7968C92.3481 66.7735 92.3456 66.7572 92.3453 66.7552L92.3453 66.755C92.3424 66.7347 92.3388 66.7116 92.3349 66.6877C92.3269 66.639 92.3155 66.5741 92.3012 66.4952C92.2723 66.3366 92.2299 66.1131 92.1749 65.833C92.0648 65.2726 91.9032 64.4812 91.6964 63.5231C91.2829 61.6072 90.688 59.0203 89.962 56.2763C89.2365 53.5341 88.3777 50.6254 87.4354 48.0694C86.5 45.532 85.4587 43.275 84.3477 41.8865L84.2473 41.7609L84.0997 41.6969C83.4446 41.4127 82.7646 41.0961 82.0547 40.7656C78.6881 39.1981 74.6509 37.3183 69.4225 37.1116C63.0579 36.8598 54.998 39.0695 44.1028 46.9713L43.4172 47.4686L44.0767 48.0001C49.4756 52.3507 50.6428 58.1214 50.3933 63.0201C50.2029 66.7587 49.19 69.9392 48.6185 71.5289C48.2248 70.9538 47.9741 70.2307 47.7855 69.3816C47.6552 68.7946 47.5601 68.176 47.4606 67.5282L47.4448 67.4258C47.3408 66.7498 47.23 66.0446 47.0684 65.3636C46.7458 64.0039 46.2004 62.6449 44.9897 61.6825C43.7763 60.718 42.0079 60.2401 39.4326 60.3839L38.6775 60.426L38.8351 61.1656L42.6856 79.2383L42.6921 79.2686L42.7014 79.2982C44.077 83.6583 46.4359 87.4377 49.4518 90.4212C49.4775 90.4642 49.5149 90.5274 49.5626 90.609C49.6607 90.7767 49.8019 91.0223 49.973 91.3307C50.3153 91.948 50.7757 92.8151 51.2479 93.8132C52.2018 95.8298 53.1666 98.3056 53.3525 100.327C53.5412 102.379 53.0253 105.026 52.4347 107.212C52.1424 108.295 51.8376 109.244 51.6059 109.923C51.5576 110.064 51.5125 110.193 51.4715 110.31C49.7655 109.494 48.2419 109.555 46.9361 110.315C45.5247 111.137 44.491 112.708 43.7215 114.456C42.3152 117.65 41.6389 121.792 41.3268 124.362C32.896 122.428 26.3861 120.465 21.9568 118.973C19.6809 118.207 17.9544 117.565 16.7989 117.116C16.2211 116.891 15.7861 116.715 15.4965 116.595C15.4246 116.565 15.3617 116.539 15.3078 116.516C15.2559 116.383 15.1847 116.197 15.0983 115.961C14.9061 115.435 14.6386 114.66 14.3409 113.676C13.7453 111.706 13.0297 108.896 12.5527 105.548C11.5977 98.8435 11.6047 90.0199 15.399 81.4393C16.0123 80.0523 16.7787 78.6274 17.6094 77.0831C20.8189 71.1162 24.9875 63.3663 24.9875 49.1335C24.9875 38.7635 30.0207 30.0302 37.4309 23.8737C44.8477 17.7116 54.6169 14.1588 63.9991 14.1588C69.1285 14.1588 73.2523 14.7464 76.5668 16.7487C79.8609 18.7387 82.4545 22.1884 84.381 28.1324C84.577 28.7374 85.2248 29.1071 85.8579 28.9017C89.6939 27.6573 95.5099 28.9135 100.419 32.1184C105.307 35.3092 109.103 40.3068 109.103 46.3302C109.103 51.5594 108.207 55.0929 107.334 58.534L107.334 58.5341C106.277 62.7001 105.256 66.7239 105.976 73.2794C106.216 75.4657 106.705 77.0161 107.388 78.3016C108.06 79.5664 108.907 80.5456 109.8 81.5777L109.82 81.6011C111.947 84.0596 112.915 86.082 113.227 87.8611C113.539 89.6357 113.212 91.2452 112.606 92.9152C112.301 93.7544 111.93 94.5966 111.537 95.4843L111.503 95.561C111.123 96.4194 110.725 97.3183 110.367 98.2642C109.627 100.221 109.05 102.402 109.107 104.988L109.755 104.974L109.107 104.988C109.156 107.183 109.545 108.688 110.127 109.826C110.702 110.951 111.445 111.671 112.093 112.299L112.111 112.316C112.701 112.888 113.193 113.37 113.557 114.046C113.882 114.649 114.123 115.446 114.163 116.643C106.024 121.483 97.969 123.484 91.92 124.271C88.8568 124.67 86.3115 124.756 84.5357 124.744C83.6479 124.738 82.9528 124.706 82.482 124.677Z" fill="#FC909F" stroke="black" stroke-width="1.29557"/>
<path d="M42.7437 62.0777C41.9538 61.8177 41.1012 61.6792 40.2284 61.6792C36.6712 61.6792 33.7876 63.8827 34.1266 67.9506C34.4796 72.188 37.0102 73.7134 40.5674 73.7134C40.9632 73.7134 41.3506 73.6787 41.7267 73.6121C42.1371 73.5395 42.5339 73.429 42.9132 73.2845" stroke="black" stroke-width="2.71193"/>
<path d="M43.0827 73.2172C42.3099 73.5367 41.4599 73.7134 40.5674 73.7134C37.0102 73.7134 34.4796 72.188 34.1266 67.9506C33.7876 63.8827 36.6712 61.6792 40.2284 61.6792C41.292 61.6792 42.3256 61.8848 43.2522 62.2655L43.0827 73.2172Z" fill="#77311D"/>
<path d="M41.7267 64.5608C40.3708 63.9393 37.3877 63.6116 36.3029 67.2727" stroke="black" stroke-width="1.35596"/>
<path d="M38.1673 64.7301C38.9018 65.3516 40.303 67.2726 40.0318 69.9845" stroke="black" stroke-width="1.35596"/>
<path d="M41.5572 71.849C46.0505 71.849 49.693 75.4915 49.693 79.9848C49.693 84.478 46.0505 88.1205 41.5572 88.1205C37.064 88.1205 33.4214 84.478 33.4214 79.9848C33.4214 77.8182 34.6079 76.0864 35.6491 74.3914L35.9639 73.8829" stroke="#F4D150" stroke-width="1.35596"/>
<path d="M109.617 129.787H17.103C17.1147 129.764 17.1265 129.74 17.1383 129.715C18.6789 126.578 21.5213 120.789 25.2206 115.61C27.3201 112.671 29.6708 109.965 32.1831 108.061C34.6958 106.157 37.3086 105.101 39.963 105.334C45.0663 105.78 49.6118 108.574 54.1752 111.379C54.6076 111.645 55.0402 111.911 55.4734 112.175C60.3836 115.167 65.4259 117.946 70.9715 116.73C72.8477 116.319 74.1121 115.438 74.9078 114.301C75.6923 113.18 75.9742 111.877 76.0229 110.687C76.0718 109.494 75.889 108.367 75.6992 107.547C75.6105 107.164 75.519 106.843 75.4459 106.608C76.6747 105.371 77.9758 104.65 79.3191 104.326C80.7749 103.974 82.3316 104.076 83.9692 104.56C87.2675 105.536 90.7965 108.036 94.2406 111.25C100.551 117.139 106.34 125.198 109.617 129.787Z" fill="white" stroke="black" stroke-width="1.44895"/>
<defs>
<clipPath id="clip0_5_21877">
<rect width="68.9474" height="110.316" fill="white" transform="translate(31.0252 14.8238)"/>
</clipPath>
</defs>
</svg>
