<svg width="60" height="60" viewBox="0 0 60 60" fill="none" xmlns="http://www.w3.org/2000/svg">
<g clip-path="url(#clip0_6_23636)">
<path d="M54.7312 37.2063C56.9368 37.2063 58.7237 38.9945 58.7237 41.1988C58.7237 43.4043 56.9368 45.1912 54.7312 45.1912C53.8594 45.1912 53.0541 44.9117 52.398 44.4382V52.3987H44.4374C44.911 53.0548 45.1918 53.8602 45.1918 54.7319C45.1918 56.9362 43.4036 58.7231 41.1993 58.7231C38.9937 58.7231 37.2068 56.9362 37.2068 54.7319C37.2068 53.8602 37.4863 53.0549 37.9599 52.3987H30.0005V44.4382C30.6565 44.9117 31.4619 45.1912 32.3337 45.1912C34.538 45.1912 36.3262 43.4043 36.3262 41.1988C36.3262 38.9945 34.538 37.2063 32.3337 37.2063C31.4619 37.2063 30.6566 37.4871 30.0005 37.9606V30.0001H37.9599C37.4863 30.6561 37.2068 31.4628 37.2068 32.3333C37.2068 34.5389 38.9937 36.3257 41.1993 36.3257C43.4036 36.3257 45.1918 34.5389 45.1918 32.3333C45.1918 31.4628 44.911 30.6562 44.4374 30.0001H52.398V37.9606C53.054 37.4871 53.8594 37.2063 54.7312 37.2063Z" fill="#71E48F"/>
<path d="M52.398 22.0279V30H44.4374C44.911 30.6561 45.1918 31.4628 45.1918 32.3333C45.1918 34.5388 43.4036 36.3257 41.1993 36.3257C38.9937 36.3257 37.2068 34.5388 37.2068 32.3333C37.2068 31.4628 37.4863 30.6562 37.9599 30H30.0005V22.0395C30.6565 22.5143 31.4619 22.7938 32.3337 22.7938C34.538 22.7938 36.3262 21.0057 36.3262 18.8014C36.3262 16.5971 34.538 14.8089 32.3337 14.8089C31.4619 14.8089 30.6566 15.0884 30.0005 15.5632V7.60266H38.6222C38.2266 6.96832 37.9968 6.21914 37.9968 5.415C37.9968 3.13031 39.8501 1.2771 42.1347 1.2771C44.4207 1.2771 46.2739 3.13042 46.2739 5.415C46.2739 6.21914 46.0442 6.96832 45.6484 7.60266H52.3978V15.9577C51.6601 15.2735 50.6709 14.8536 49.5847 14.8536C47.3 14.8536 45.4468 16.707 45.4468 18.9928C45.4468 21.2787 47.3 23.132 49.5847 23.132C50.6711 23.1319 51.6603 22.712 52.398 22.0279Z" fill="#6CB9F9"/>
<path d="M32.3337 14.8088C34.538 14.8088 36.3262 16.5969 36.3262 18.8012C36.3262 21.0055 34.538 22.7937 32.3337 22.7937C31.4619 22.7937 30.6566 22.5142 30.0005 22.0394V29.9999H22.0399C22.5135 30.6559 22.793 31.4627 22.793 32.3331C22.793 34.5387 21.0061 36.3256 18.8005 36.3256C16.5962 36.3256 14.8093 34.5387 14.8093 32.3331C14.8093 31.4627 15.0888 30.6561 15.5624 29.9999H7.60181V21.7892C8.34595 22.5013 9.35294 22.9404 10.4647 22.9404C12.7507 22.9404 14.6026 21.0871 14.6026 18.8012C14.6026 16.5154 12.7506 14.662 10.4647 14.662C9.35294 14.662 8.34595 15.1011 7.60181 15.8133V7.60253H15.5624C15.0888 6.94652 14.8093 6.13979 14.8093 5.26932C14.8093 3.06373 16.5962 1.27686 18.8005 1.27686C21.0061 1.27686 22.793 3.06373 22.793 5.26932C22.793 6.13979 22.5135 6.9464 22.0399 7.60253H30.0005V15.5631C30.6566 15.0884 31.4619 14.8088 32.3337 14.8088Z" fill="#EE7975"/>
<path d="M32.3337 37.2063C34.538 37.2063 36.3262 38.9945 36.3262 41.1988C36.3262 43.4043 34.538 45.1912 32.3337 45.1912C31.4619 45.1912 30.6566 44.9117 30.0005 44.4382V52.3987H22.0399C22.5135 53.0548 22.793 53.8602 22.793 54.7319C22.793 56.9362 21.0061 58.7231 18.8005 58.7231C16.5962 58.7231 14.8093 56.9362 14.8093 54.7319C14.8093 53.8602 15.0888 53.0549 15.5624 52.3987H7.6018V44.4382C6.94578 44.9117 6.14035 45.1912 5.26859 45.1912C3.06429 45.1912 1.27612 43.4043 1.27612 41.1988C1.27612 38.9945 3.06429 37.2063 5.26859 37.2063C6.14035 37.2063 6.94567 37.4871 7.6018 37.9606V30.0001H15.5624C15.0888 30.6561 14.8093 31.4628 14.8093 32.3333C14.8093 34.5389 16.5962 36.3257 18.8005 36.3257C21.0061 36.3257 22.793 34.5389 22.793 32.3333C22.793 31.4628 22.5135 30.6562 22.0399 30.0001H30.0005V37.9606C30.6566 37.4871 31.4619 37.2063 32.3337 37.2063Z" fill="#F4BA43"/>
<path d="M54.7312 35.93C54.3728 35.93 54.0193 35.9658 53.6746 36.0361V30.0001V22.0279C53.6746 21.5205 53.374 21.0612 52.9087 20.8581C52.4439 20.6552 51.9026 20.7469 51.5303 21.0921C50.9993 21.5845 50.3086 21.8555 49.5851 21.8555C48.0072 21.8555 46.7234 20.5713 46.7234 18.9926C46.7234 17.414 48.0072 16.1297 49.5851 16.1297C50.3085 16.1297 50.9993 16.4009 51.5303 16.8932C51.9026 17.2385 52.4439 17.3301 52.9087 17.1271C53.374 16.924 53.6746 16.4648 53.6746 15.9574V7.60257C53.6746 6.89769 53.103 6.32616 52.3982 6.32616H47.4736C47.5245 6.02663 47.5506 5.72183 47.5506 5.4148C47.5506 2.42932 45.1211 0.000488281 42.135 0.000488281C39.1495 0.000488281 36.7207 2.4292 36.7207 5.4148C36.7207 5.72171 36.7466 6.02652 36.7977 6.32616H30.0005H23.9637C24.0338 5.9814 24.0694 5.62796 24.0694 5.26937C24.0694 2.36416 21.7057 0.000605469 18.8007 0.000605469C15.8962 0.000605469 13.5332 2.36416 13.5332 5.26937C13.5332 5.62808 13.5688 5.98152 13.6389 6.32616H7.60185C6.89708 6.32616 6.32544 6.89757 6.32544 7.60257V15.8133C6.32544 16.3245 6.63048 16.7865 7.1004 16.9871C7.57033 17.1877 8.1149 17.0889 8.48427 16.7354C9.02123 16.2215 9.72459 15.9384 10.4647 15.9384C12.0426 15.9384 13.3264 17.2226 13.3264 18.8013C13.3264 20.3799 12.0426 21.6642 10.4647 21.6642C9.72459 21.6642 9.02123 21.381 8.48427 20.8672C8.1149 20.5137 7.57033 20.4147 7.1004 20.6155C6.63036 20.8162 6.32544 21.278 6.32544 21.7892V30V36.0359C5.98068 35.9658 5.62712 35.9299 5.26876 35.9299C2.36356 35.93 0 38.2935 0 41.1988C0 44.1041 2.36368 46.4675 5.26876 46.4675C5.62747 46.4675 5.98079 46.4319 6.32544 46.3618V52.3988C6.32544 53.1036 6.89697 53.6752 7.60185 53.6752H13.6389C13.5688 54.0198 13.5332 54.3734 13.5332 54.732C13.5332 57.6365 15.8963 59.9994 18.8007 59.9994C21.7059 59.9994 24.0694 57.6363 24.0694 54.732C24.0694 54.3735 24.0338 54.0198 23.9637 53.6752H30.0006H36.0363C35.9662 54.0198 35.9306 54.3735 35.9306 54.732C35.9306 57.6365 38.2943 59.9994 41.1993 59.9994C44.1044 59.9994 46.4681 57.6363 46.4681 54.732C46.4681 54.3735 46.4324 54.0199 46.3622 53.6752H52.398C53.1028 53.6752 53.6744 53.1038 53.6744 52.3988V46.3618C54.0191 46.4319 54.3726 46.4675 54.7311 46.4675C57.6363 46.4675 59.9999 44.104 59.9999 41.1988C59.9999 38.2936 57.6363 35.93 54.7312 35.93ZM38.6224 8.87887C39.0862 8.87887 39.5134 8.62726 39.7385 8.22179C39.9635 7.81632 39.9508 7.3205 39.7054 6.9271C39.4228 6.47382 39.2734 5.95093 39.2734 5.4148C39.2734 3.83698 40.5571 2.55319 42.135 2.55319C43.7136 2.55319 44.9979 3.83698 44.9979 5.4148C44.9979 5.95105 44.8486 6.47394 44.5658 6.9271C44.3204 7.32062 44.3079 7.81621 44.5327 8.22179C44.7576 8.62738 45.185 8.87887 45.6488 8.87887H51.1219V13.7989C50.6278 13.6527 50.1111 13.5772 49.5852 13.5772C46.5997 13.5772 44.1709 16.0066 44.1709 18.9928C44.1709 21.9789 46.5996 24.4083 49.5852 24.4083C50.1111 24.4083 50.6278 24.3326 51.1219 24.1866V28.7237H44.4376C43.9583 28.7237 43.5195 28.9923 43.3012 29.4188C43.083 29.8454 43.1223 30.3584 43.4027 30.747C43.7382 31.212 43.9156 31.7605 43.9156 32.3332C43.9156 33.8308 42.6972 35.0492 41.1996 35.0492C39.7019 35.0492 38.4835 33.8308 38.4835 32.3332C38.4835 31.7593 38.6606 31.2109 38.9952 30.747C39.2756 30.3586 39.3148 29.8455 39.0966 29.4188C38.8784 28.9921 38.4396 28.7237 37.9603 28.7237H31.2773V23.9643C31.6219 24.0344 31.9755 24.0701 32.3341 24.0701C35.2393 24.0701 37.6028 21.7066 37.6028 18.8014C37.6028 15.8962 35.2392 13.5326 32.3341 13.5326C31.9753 13.5326 31.6219 13.5682 31.2773 13.6384V8.87887H38.6224ZM8.87814 23.9805C9.38662 24.1362 9.92041 24.2169 10.4647 24.2169C13.4502 24.2169 15.8791 21.7874 15.8791 18.8013C15.8791 15.8151 13.4502 13.3857 10.4647 13.3857C9.92041 13.3857 9.38674 13.4663 8.87814 13.622V8.87887H15.5624C16.0417 8.87887 16.4805 8.61027 16.6988 8.18371C16.9171 7.75714 16.8777 7.2441 16.5973 6.8555C16.2626 6.39179 16.0858 5.84335 16.0858 5.26937C16.0858 3.77171 17.3036 2.55331 18.8005 2.55331C20.2982 2.55331 21.5166 3.77171 21.5166 5.26937C21.5166 5.84323 21.3395 6.39167 21.005 6.8555C20.7245 7.24398 20.6854 7.75703 20.9035 8.18371C21.1217 8.61039 21.5606 8.87887 22.0398 8.87887H28.7241V15.5631C28.7241 16.0427 28.9929 16.4818 29.42 16.6999C29.847 16.9178 30.3604 16.8782 30.7488 16.597C31.2114 16.262 31.7595 16.085 32.3336 16.085C33.8313 16.085 35.0497 17.3034 35.0497 18.801C35.0497 20.2987 33.8313 21.5171 32.3336 21.5171C31.7595 21.5171 31.2114 21.34 30.7488 21.0051C30.3605 20.724 29.847 20.6842 29.42 20.9023C28.9929 21.1203 28.7241 21.5594 28.7241 22.039V28.7233H22.0398C21.5606 28.7233 21.1218 28.9919 20.9035 29.4185C20.6854 29.8452 20.7245 30.3581 21.005 30.7467C21.3397 31.2105 21.5166 31.759 21.5166 32.3328C21.5166 33.8305 20.2982 35.0489 18.8005 35.0489C17.3035 35.0489 16.0858 33.8305 16.0858 32.3328C16.0858 31.7588 16.2627 31.2104 16.5973 30.7467C16.8777 30.3582 16.917 29.8452 16.6988 29.4185C16.4806 28.9918 16.0417 28.7233 15.5624 28.7233H8.87814V23.9805ZM22.04 51.1223C21.5607 51.1223 21.1219 51.3909 20.9036 51.8175C20.6854 52.2441 20.7246 52.7571 21.0051 53.1458C21.3399 53.6095 21.5167 54.158 21.5167 54.732C21.5167 56.229 20.2983 57.4467 18.8007 57.4467C17.3036 57.4467 16.0859 56.2288 16.0859 54.732C16.0859 54.1579 16.2628 53.6094 16.5974 53.1458C16.8778 52.7572 16.9171 52.2442 16.6989 51.8175C16.4807 51.3908 16.0418 51.1223 15.5625 51.1223H8.87814V44.4381C8.87814 43.9588 8.60955 43.52 8.18299 43.3017C7.75607 43.0833 7.24326 43.1226 6.85478 43.4031C6.39107 43.7378 5.84263 43.9146 5.26864 43.9146C3.77098 43.9146 2.55258 42.6962 2.55258 41.1985C2.55258 39.7009 3.77098 38.4825 5.26864 38.4825C5.84134 38.4825 6.38978 38.6599 6.85478 38.9954C7.24326 39.2758 7.75619 39.3151 8.18299 39.0968C8.60967 38.8787 8.87814 38.4397 8.87814 37.9604V31.2763H13.6388C13.5687 31.6209 13.5331 31.9745 13.5331 32.333C13.5331 35.2383 15.8962 37.6018 18.8005 37.6018C21.7057 37.6018 24.0693 35.2383 24.0693 32.333C24.0693 31.9743 24.0337 31.621 23.9636 31.2763H28.7241V37.9605C28.7241 38.4398 28.9927 38.8786 29.4193 39.0969C29.846 39.3151 30.3588 39.2758 30.7475 38.9955C31.2125 38.66 31.7608 38.4826 32.3337 38.4826C33.8314 38.4826 35.0498 39.701 35.0498 41.1987C35.0498 42.6963 33.8314 43.9147 32.3337 43.9147C31.7598 43.9147 31.2112 43.7378 30.7475 43.4032C30.3589 43.1228 29.846 43.0835 29.4193 43.3018C28.9926 43.5199 28.7241 43.9589 28.7241 44.4382V51.1225L22.04 51.1223ZM54.7312 43.9148C54.1573 43.9148 53.6088 43.7379 53.1451 43.4033C52.7566 43.1229 52.2436 43.0836 51.8169 43.3019C51.3902 43.52 51.1217 43.959 51.1217 44.4383V51.1226H44.4376C43.9583 51.1226 43.5195 51.3912 43.3012 51.8177C43.083 52.2443 43.1223 52.7574 43.4027 53.1461C43.7382 53.6109 43.9156 54.1594 43.9156 54.7322C43.9156 56.2293 42.6972 57.447 41.1996 57.447C39.7019 57.447 38.4835 56.229 38.4835 54.7322C38.4835 54.1582 38.6605 53.6098 38.9952 53.1461C39.2756 52.7575 39.3148 52.2444 39.0966 51.8177C38.8784 51.3911 38.4396 51.1226 37.9603 51.1226H31.2773V46.3621C31.6219 46.4321 31.9756 46.4678 32.3341 46.4678C35.2393 46.4678 37.6028 44.1042 37.6028 41.199C37.6028 38.2938 35.2392 35.9302 32.3341 35.9302C31.9756 35.9302 31.6221 35.966 31.2773 36.0363V31.2766H36.0365C35.9664 31.6214 35.9308 31.9748 35.9308 32.3334C35.9308 35.2386 38.2945 37.6022 41.1996 37.6022C44.1047 37.6022 46.4683 35.2386 46.4683 32.3334C46.4683 31.9749 46.4326 31.6214 46.3624 31.2766H51.122V37.9609C51.122 38.4402 51.3906 38.8789 51.8171 39.0972C52.2439 39.3154 52.7567 39.2764 53.1453 38.9959C53.6103 38.6604 54.1587 38.4829 54.7315 38.4829C56.2291 38.4829 57.4475 39.7013 57.4475 41.199C57.4475 42.6967 56.2289 43.9148 54.7312 43.9148Z" fill="#1C274C"/>
<path d="M48.3813 42.8784C47.6765 42.8784 47.1049 43.4498 47.1049 44.1548V47.9417C47.1049 48.6466 47.6764 49.2182 48.3813 49.2182C49.0862 49.2182 49.6577 48.6467 49.6577 47.9417V44.1548C49.6577 43.4498 49.0862 42.8784 48.3813 42.8784Z" fill="#1C274C"/>
<path d="M48.3813 37.5178C47.6765 37.5178 47.1049 38.0892 47.1049 38.7942V39.3366C47.1049 40.0415 47.6764 40.613 48.3813 40.613C49.0862 40.613 49.6577 40.0416 49.6577 39.3366V38.7942C49.6577 38.0892 49.0862 37.5178 48.3813 37.5178Z" fill="#1C274C"/>
</g>
<defs>
<clipPath id="clip0_6_23636">
<rect width="60" height="60" fill="white"/>
</clipPath>
</defs>
</svg>
