<svg width="60" height="60" viewBox="0 0 60 60" fill="none" xmlns="http://www.w3.org/2000/svg">
<path d="M21.1191 0.0048229C16.0662 0.0626804 9.04211 1.85493 5.00146 6.25358C0.932685 10.6826 0 16.309 0 23.2585C0 35.858 8.12443 47.3518 19.9262 50.0946L23.015 46.9936L24.5467 48.5212L22.5293 50.5469C23.4544 50.6561 24.3974 50.7182 25.3586 50.7182C28.9293 50.7182 32.162 49.2773 34.9931 47.8387C35.5631 47.5478 36.2686 47.3161 36.9057 47.2067C37.5427 47.0974 38.1261 47.1402 38.2659 47.1852C40.6658 48.0262 43.1053 51.1268 44.6402 53.685L47.235 57.9874C48.6141 60.2851 51.8561 60.6904 53.7515 58.7952L58.7989 53.7519C60.6933 51.8574 60.2885 48.6097 57.9912 47.2314L53.6887 44.653C51.8947 43.5766 49.855 42.1031 48.5324 40.4638C47.6765 39.4026 47.2853 38.3372 47.281 38.3293C47.0996 37.8119 47.2034 36.4348 47.4567 35.9392C49.0242 32.8739 50.7003 29.3028 50.7003 25.3546C50.7003 17.9074 46.7904 11.4984 41.2081 7.05233C35.6291 2.60855 28.3586 0 21.1354 0C21.1296 0 21.124 0 21.1183 0L21.1191 0.0048229Z" fill="#1C274C"/>
<path d="M21.1346 2.15613C16.5978 2.20541 9.951 4.03877 6.58241 7.7059C3.00877 11.5961 2.15015 16.4969 2.15015 23.2585C2.15015 34.5616 9.13671 44.7701 19.3601 47.7006L47.5857 19.4705C46.2133 15.2658 43.4647 11.5931 39.8765 8.73554C34.691 4.60529 27.8386 2.15613 21.1346 2.15613Z" fill="#EE7975"/>
<path d="M48.2051 21.8895L21.8293 48.2486C22.9767 48.4352 24.1469 48.567 25.3576 48.567C28.3421 48.567 31.2565 47.3248 34.0086 45.926C34.8066 45.5187 35.7043 45.2302 36.5574 45.0848C37.4106 44.9391 38.2024 44.8941 38.9766 45.1682C42.386 46.3629 44.8569 49.8639 46.4892 52.5846L49.0674 56.9038C49.7376 58.0208 51.3268 58.2017 52.2482 57.2805L57.279 52.254C58.2008 51.3322 58.0162 49.7442 56.8982 49.0732L52.579 46.4951C50.6697 45.3496 48.449 43.7898 46.8535 41.8117C45.8642 40.5854 45.5268 39.5982 45.4305 39.3423C45.3889 39.2887 45.3524 39.2314 45.3216 39.171C45.3028 39.1342 45.286 39.0961 45.2714 39.0574C45.2657 39.0467 45.2599 39.036 45.2545 39.0253C44.7938 37.7106 44.9085 36.1908 45.5391 34.9572C47.0785 31.9469 48.5609 28.6821 48.5609 25.3561C48.5609 24.1661 48.4161 23.0154 48.2051 21.8865V21.8895Z" fill="white"/>
<path d="M22.1721 2.69147C17.7884 2.74075 11.3684 4.51371 8.11362 8.05708C4.66079 11.8157 3.83203 16.5487 3.83203 23.0821C3.83203 34.0034 10.5822 43.8681 20.4602 46.6998L47.7316 19.4242C46.4055 15.3613 43.7488 11.8101 40.2817 9.04883C35.2716 5.05814 28.6496 2.69133 22.1721 2.69147Z" fill="#F2A861"/>
<path d="M18.1626 4.39892C18.1669 4.39892 18.1712 4.39892 18.1755 4.39892C22.1845 4.19749 25.6679 4.92124 29.3418 6.52116C29.8954 6.73049 30.1743 7.34912 29.965 7.90252C29.7557 8.45605 29.1372 8.73489 28.5837 8.52556C28.5511 8.51324 28.5192 8.49944 28.488 8.4839C25.0468 6.98577 21.9883 6.3512 18.2885 6.53803C17.6985 6.58491 17.1824 6.14456 17.1355 5.55473C17.0886 4.96464 17.529 4.44848 18.1189 4.40173C18.1335 4.40039 18.1483 4.39959 18.1629 4.39905L18.1626 4.39892Z" fill="white"/>
<path d="M32.1457 8.57617C32.7374 8.57617 33.2171 9.05591 33.2171 9.64761C33.2171 10.2393 32.7374 10.719 32.1457 10.719C31.554 10.719 31.0742 10.2393 31.0742 9.64761C31.0742 9.05591 31.554 8.57617 32.1457 8.57617Z" fill="white"/>
<path d="M47.568 23.261L23.2029 47.6106C24.2628 47.7843 25.3437 47.9046 26.4622 47.9046C29.2191 47.9046 31.9114 46.7568 34.4538 45.4648C35.1909 45.0883 36.0202 44.8226 36.8082 44.6873C37.5964 44.5523 38.3278 44.5115 39.043 44.7686C42.1925 45.8725 44.475 49.1065 45.9828 51.6196L48.3645 55.6095C48.9836 56.6412 50.4516 56.8083 51.3028 55.958L55.95 51.3147C56.8015 50.463 56.6309 48.996 55.5983 48.3764L51.6082 45.9947C49.8445 44.9364 47.7931 43.4956 46.3192 41.6682C45.4054 40.5352 45.0937 39.6233 45.0047 39.3872C44.9663 39.3378 44.9327 39.2846 44.9043 39.2286C44.8869 39.1946 44.8715 39.1595 44.8581 39.1238C44.8524 39.113 44.847 39.1023 44.8417 39.0916C44.4162 37.8771 44.522 36.4729 45.1046 35.3337C46.5267 32.5528 47.896 29.5368 47.896 26.4645C47.896 25.3653 47.7622 24.3022 47.5675 23.2593L47.568 23.261Z" fill="white"/>
<path d="M19.2845 21.4294C22.8222 21.4294 25.7131 24.3204 25.7131 27.858C25.7131 31.3959 22.8222 34.2866 19.2845 34.2866C15.7467 34.2866 12.8558 31.3959 12.8558 27.858C12.8558 24.3204 15.7467 21.4294 19.2845 21.4294Z" fill="#1C274C"/>
<path d="M19.2845 23.5723C16.9049 23.5723 14.9988 25.4783 14.9988 27.858C14.9988 30.2377 16.9049 32.1438 19.2845 32.1438C21.6642 32.1438 23.5703 30.2377 23.5703 27.858C23.5703 25.4783 21.6642 23.5723 19.2845 23.5723Z" fill="#6CB9F9"/>
<path d="M18.9497 24.7018C17.0696 24.7018 15.5637 26.2077 15.5637 28.088C15.5637 29.9682 17.0696 31.4741 18.9497 31.4741C20.8298 31.4741 22.3357 29.9682 22.3357 28.088C22.3357 26.2077 20.8298 24.7018 18.9497 24.7018Z" fill="#83EEEF"/>
</svg>
