<svg width="60" height="60" viewBox="0 0 60 60" fill="none" xmlns="http://www.w3.org/2000/svg">
<g clip-path="url(#clip0_6_24172)">
<path d="M25.734 39.8437C26.2965 40.3594 27.234 40.3594 27.7965 39.7969L45.3746 21.6562C45.9371 21.0937 45.9371 20.1562 45.3278 19.5937C44.7653 19.0312 43.8278 19.0312 43.2653 19.6406L25.6871 37.7812L27.7496 37.7344L17.0621 27.9375C16.4528 27.375 15.5621 27.4219 14.9996 28.0312C14.4371 28.6406 14.484 29.5312 15.0934 30.0937L25.734 39.8437Z" fill="white"/>
<path d="M30.1871 59.0156C14.0153 59.0156 0.890259 45.8906 0.890259 29.7188C0.890259 13.5469 14.0153 0.421875 30.1871 0.421875C46.359 0.421875 59.484 13.5469 59.484 29.7188C59.484 45.8906 46.359 59.0156 30.1871 59.0156ZM30.1871 3.23438C15.5621 3.23438 3.70276 15.0938 3.70276 29.7188C3.70276 44.3438 15.5621 56.2031 30.1871 56.2031C44.8121 56.2031 56.6715 44.3438 56.6715 29.7188C56.6715 15.0938 44.8121 3.23438 30.1871 3.23438Z" fill="white"/>
</g>
<defs>
<clipPath id="clip0_6_24172">
<rect width="60" height="60" fill="white" transform="translate(-0.000366211)"/>
</clipPath>
</defs>
</svg>
