<svg width="60" height="60" viewBox="0 0 60 60" fill="none" xmlns="http://www.w3.org/2000/svg">
<g clip-path="url(#clip0_6_23635)">
<path d="M40.0209 27.9958H19.9791V52.046H40.0209V27.9958Z" fill="#71E48F"/>
<path d="M21.9833 27.9958H19.9791V52.046H21.9833V27.9958Z" fill="#71E48F"/>
<path d="M34.0083 27.9958H31.0021V52.046H34.0083V27.9958Z" fill="#71E48F"/>
<path d="M40.0209 27.9958H19.9791V33.0063H40.0209V27.9958Z" fill="#71E48F"/>
<path d="M44.0293 22.9854H15.9708V31.0021H44.0293V22.9854Z" fill="#71E48F"/>
<path d="M44.0293 22.9854H15.9708V31.0021H44.0293V22.9854Z" fill="#71E48F"/>
<path d="M17.975 22.9854H15.9708V31.0021H17.975V22.9854Z" fill="#71E48F"/>
<path d="M33.0063 22.9854H17.975V31.0021H33.0063V22.9854Z" fill="#71E48F"/>
<path d="M44.0293 22.9854H36.0126V31.0021H44.0293V22.9854Z" fill="#71E48F"/>
<path d="M33.0062 0.939514H26.9937V18.9771H33.0062C35.22 18.9771 37.0146 14.9393 37.0146 9.95838C37.0146 4.97744 35.22 0.939514 33.0062 0.939514Z" fill="#F4BA43"/>
<path d="M26.9938 11.9624H36.914C36.9792 11.3175 37.0146 10.6474 37.0146 9.95824C37.0146 9.26906 36.9792 8.59887 36.914 7.9541H26.9938V11.9624Z" fill="#F4BA43"/>
<path d="M26.9938 18.977C29.2075 18.977 31.0021 14.9392 31.0021 9.95826C31.0021 4.97735 29.2075 0.939514 26.9938 0.939514C24.78 0.939514 22.9854 4.97735 22.9854 9.95826C22.9854 14.9392 24.78 18.977 26.9938 18.977Z" fill="#F2A861"/>
<path d="M14.9686 47.0355H4.94775V53.0481H14.9686V47.0355Z" fill="#EE81D4"/>
<path d="M6.95201 51.0438V47.0355H4.94775V53.0479H14.9687V51.0438H6.95201Z" fill="#EE81D4"/>
<path d="M24.9896 47.0355H14.9688V53.0481H24.9896V47.0355Z" fill="#EE81D4"/>
<path d="M16.9729 51.0438V47.0355H14.9688V53.0479H24.9896V51.0438H16.9729Z" fill="#EE81D4"/>
<path d="M35.0103 47.0355H24.9895V53.0481H35.0103V47.0355Z" fill="#EE81D4"/>
<path d="M26.9938 51.0438V47.0355H24.9895V53.0479H35.0104V51.0438H26.9938Z" fill="#EE81D4"/>
<path d="M45.0313 47.0355H35.0105V53.0481H45.0313V47.0355Z" fill="#EE81D4"/>
<path d="M37.0146 51.0438V47.0355H35.0105V53.0479H45.0313V51.0438H37.0146Z" fill="#EE81D4"/>
<path d="M55.0521 47.0355H45.0312V53.0481H55.0521V47.0355Z" fill="#EE81D4"/>
<path d="M47.0355 51.0438V47.0355H45.0312V53.0479H55.0522V51.0438H47.0355Z" fill="#EE81D4"/>
<path d="M19.9791 53.048H9.95825V59.0605H19.9791V53.048Z" fill="#EE81D4"/>
<path d="M11.9624 57.0564V53.048H9.95825V59.0605H19.9792V57.0564H11.9624Z" fill="#EE81D4"/>
<path d="M29.9999 53.048H19.9791V59.0605H29.9999V53.048Z" fill="#EE81D4"/>
<path d="M21.9833 57.0564V53.048H19.9791V59.0605H29.9999V57.0564H21.9833Z" fill="#EE81D4"/>
<path d="M40.0208 53.048H30V59.0605H40.0208V53.048Z" fill="#EE81D4"/>
<path d="M32.0041 57.0564V53.048H30V59.0605H40.0208V57.0564H32.0041Z" fill="#EE81D4"/>
<path d="M50.0417 53.048H40.0209V59.0605H50.0417V53.048Z" fill="#EE81D4"/>
<path d="M42.0251 57.0564V53.048H40.0209V59.0605H50.0418V57.0564H42.0251Z" fill="#EE81D4"/>
<path d="M58.0584 53.048H50.0417V59.0605H58.0584V53.048Z" fill="#EE81D4"/>
<path d="M52.0459 57.0564V53.048H50.0417V59.0605H58.0584V57.0564H52.0459Z" fill="#EE81D4"/>
<path d="M9.95821 53.048H1.94153V59.0605H9.95821V53.048Z" fill="#EE81D4"/>
<path d="M3.94567 57.0564V53.048H1.94153V59.0605H9.95821V57.0564H3.94567Z" fill="#EE81D4"/>
<path d="M26.9938 19.9165H33.0063C35.827 19.9165 37.9541 15.6353 37.9541 9.95824C37.9541 4.28121 35.827 0 33.0062 0H26.9937C24.173 0 22.0459 4.28121 22.0459 9.95824C22.0459 15.6353 24.173 19.9165 26.9938 19.9165ZM36.0751 9.95824C36.0751 14.9639 34.2877 18.0376 33.0062 18.0376H29.9584C31.1773 16.2591 31.9416 13.3598 31.9416 9.95824C31.9416 6.55664 31.1774 3.65754 29.9584 1.87887H33.0062C34.2877 1.87887 36.0751 4.95258 36.0751 9.95824ZM26.9938 1.87887C28.2752 1.87887 30.0627 4.95258 30.0627 9.95824C30.0627 14.9639 28.2752 18.0376 26.9938 18.0376C25.7123 18.0376 23.9249 14.9639 23.9249 9.95824C23.9249 4.95258 25.7123 1.87887 26.9938 1.87887Z" fill="#1C274C"/>
<path d="M26.0543 13.904V14.9687C26.0543 15.4876 26.4749 15.9082 26.9938 15.9082C27.5127 15.9082 27.9333 15.4877 27.9333 14.9687V13.904H27.9959C28.5147 13.904 28.9354 13.4835 28.9354 12.9645V9.95826C28.9354 9.43935 28.5148 9.01876 27.9959 9.01876H26.9311V7.89142H27.9959C28.5147 7.89142 28.9354 7.47095 28.9354 6.95193C28.9354 6.43291 28.5148 6.01244 27.9959 6.01244H27.9333V4.94767C27.9333 4.42876 27.5127 4.00818 26.9938 4.00818C26.4749 4.00818 26.0543 4.42865 26.0543 4.94767V6.01244H25.9917C25.4729 6.01244 25.0522 6.43291 25.0522 6.95193V9.95814C25.0522 10.477 25.4728 10.8976 25.9917 10.8976H27.0565V12.025H25.9917C25.4729 12.025 25.0522 12.4454 25.0522 12.9645C25.0522 13.4834 25.4728 13.904 25.9917 13.904H26.0543Z" fill="#1C274C"/>
<path d="M58.0584 52.1086H55.9916V47.0355C55.9916 46.5166 55.5711 46.0961 55.0521 46.0961H52.0459C51.527 46.0961 51.1064 46.5165 51.1064 47.0355C51.1064 47.5546 51.5269 47.975 52.0459 47.975H54.1127V52.1086H45.9708V47.975H48.0376C48.5565 47.975 48.9771 47.5546 48.9771 47.0355C48.9771 46.5165 48.5566 46.0961 48.0376 46.0961H40.9604V31.9416H44.0293C44.5482 31.9416 44.9688 31.5211 44.9688 31.0021V22.9854C44.9688 22.4665 44.5484 22.0459 44.0293 22.0459H15.9708C15.452 22.0459 15.0313 22.4664 15.0313 22.9854V31.0021C15.0313 31.521 15.4519 31.9416 15.9708 31.9416H19.0397V35.01C19.0397 35.5289 19.4603 35.9495 19.9792 35.9495C20.4981 35.9495 20.9187 35.529 20.9187 35.01V31.9416H39.0816V46.0961H35.0106H24.9898H20.9188V39.019C20.9188 38.5001 20.4982 38.0795 19.9793 38.0795C19.4604 38.0795 19.0398 38.5 19.0398 39.019V46.0961H4.94778C4.42899 46.0961 4.00829 46.5165 4.00829 47.0355V52.1086H1.94157C1.42278 52.1086 1.00208 52.5291 1.00208 53.0481V59.0606C1.00208 59.5795 1.42266 60.0001 1.94157 60.0001H58.0584C58.5774 60.0001 58.9979 59.5797 58.9979 59.0606V53.0481C58.9979 52.5291 58.5775 52.1086 58.0584 52.1086ZM16.9103 23.9249H43.0899V30.0627H16.9103V23.9249ZM44.0919 47.9749V52.1085H35.95V47.9749H44.0919ZM34.071 52.1086H25.929V47.975H34.071V52.1086ZM24.0502 47.9749V52.1085H15.9082V47.9749H24.0502ZM5.88727 47.9749H14.0292V52.1085H5.88727V47.9749ZM2.88106 53.9875H9.01875V58.121H2.88106V53.9875ZM10.8977 53.9875H19.0397V58.121H10.8977V53.9875ZM20.9186 53.9875H29.0605V58.121H20.9186V53.9875ZM30.9395 53.9875H39.0815V58.121H30.9395V53.9875ZM40.9603 53.9875H49.1023V58.121H40.9603V53.9875ZM57.1189 58.1211H50.9813V53.9876H57.1191L57.1189 58.1211Z" fill="#1C274C"/>
</g>
<defs>
<clipPath id="clip0_6_23635">
<rect width="60" height="60" fill="white"/>
</clipPath>
</defs>
</svg>
