<svg width="60" height="60" viewBox="0 0 60 60" fill="none" xmlns="http://www.w3.org/2000/svg">
<g clip-path="url(#clip0_6_23271)">
<path d="M58.7188 28.5621V31.3307C58.7188 32.1193 58.0782 32.7581 57.2895 32.7581H53.3221V27.1348H57.2895C58.0782 27.1348 58.7188 27.7735 58.7188 28.5621Z" fill="#83EEEF"/>
<path d="M53.322 32.7581V40.5506C53.322 41.3429 53.0017 42.0585 52.4828 42.5773C52.217 42.8439 51.9011 43.0553 51.5533 43.1994C51.2054 43.3434 50.8325 43.4172 50.4561 43.4165C48.8732 43.4165 47.5901 42.1334 47.5901 40.5506V19.3424C47.5901 18.55 47.9104 17.8344 48.4293 17.3156C48.9481 16.7967 49.6637 16.4764 50.4561 16.4764C52.0389 16.4764 53.322 17.7595 53.322 19.3424V32.7581Z" fill="#F4BA43"/>
<path d="M46.1777 32.7581V44.1227C46.1777 44.9132 45.8574 45.6306 45.3385 46.1495C45.0727 46.4161 44.7568 46.6275 44.4089 46.7715C44.0611 46.9155 43.6882 46.9893 43.3117 46.9887C41.7289 46.9887 40.4476 45.7055 40.4476 44.1227V15.7701C40.4476 14.9797 40.7679 14.2622 41.2868 13.7434C41.8038 13.2245 42.5194 12.9042 43.3117 12.9042C44.8946 12.9042 46.1777 14.1873 46.1777 15.7701V32.7581Z" fill="#EE81D4"/>
<path d="M19.5917 27.1348H40.4477V32.7581H19.5917V27.1348Z" fill="#83EEEF"/>
<path d="M19.5917 32.7581V44.1227C19.5917 45.7055 18.3086 46.9887 16.7257 46.9887C15.9352 46.9887 15.2178 46.6683 14.6989 46.1495C14.4325 45.8835 14.2212 45.5676 14.0772 45.2198C13.9332 44.872 13.8593 44.4991 13.8597 44.1227V15.7701C13.8597 14.1873 15.1429 12.9042 16.7257 12.9042C17.5162 12.9042 18.2336 13.2245 18.7525 13.7434C19.019 14.0093 19.2302 14.3252 19.3743 14.6731C19.5183 15.0209 19.5922 15.3937 19.5917 15.7701V32.7581Z" fill="#EE81D4"/>
<path d="M12.4474 32.7581V40.5506C12.4474 42.1334 11.1642 43.4165 9.58139 43.4165C8.79091 43.4165 8.07535 43.0962 7.55648 42.5773C7.28988 42.3115 7.07849 41.9956 6.93446 41.6478C6.79044 41.2999 6.71663 40.927 6.71729 40.5506V19.3424C6.71729 17.7595 8.00042 16.4764 9.58139 16.4764C10.3719 16.4764 11.0893 16.7967 11.6082 17.3156C12.127 17.8344 12.4474 18.55 12.4474 19.3424V32.7581Z" fill="#F4BA43"/>
<path d="M6.71729 27.1348V32.7581H2.896C2.10738 32.7581 1.46863 32.1193 1.46863 31.3307V28.5621C1.46863 27.7735 2.10738 27.1348 2.896 27.1348H6.71729Z" fill="#83EEEF"/>
<path d="M40.4477 34.0693H19.5916C19.2439 34.0693 18.9104 33.9312 18.6645 33.6853C18.4186 33.4394 18.2804 33.1058 18.2804 32.7581C18.2804 32.4103 18.4186 32.0768 18.6645 31.8309C18.9104 31.585 19.2439 31.4468 19.5916 31.4468H40.4477C40.7954 31.4468 41.129 31.585 41.3749 31.8309C41.6208 32.0768 41.7589 32.4103 41.7589 32.7581C41.7589 33.1058 41.6208 33.4394 41.3749 33.6853C41.129 33.9312 40.7954 34.0693 40.4477 34.0693ZM47.5901 34.0693H46.1778C45.83 34.0693 45.4965 33.9312 45.2506 33.6853C45.0047 33.4394 44.8665 33.1058 44.8665 32.7581C44.8665 32.4103 45.0047 32.0768 45.2506 31.8309C45.4965 31.585 45.83 31.4468 46.1778 31.4468H47.5901C47.9379 31.4468 48.2714 31.585 48.5173 31.8309C48.7632 32.0768 48.9014 32.4103 48.9014 32.7581C48.9014 33.1058 48.7632 33.4394 48.5173 33.6853C48.2714 33.9312 47.9379 34.0693 47.5901 34.0693ZM57.2895 34.0693H53.3221C52.9743 34.0693 52.6408 33.9312 52.3949 33.6853C52.149 33.4394 52.0109 33.1058 52.0109 32.7581C52.0109 32.4103 52.149 32.0768 52.3949 31.8309C52.6408 31.585 52.9743 31.4468 53.3221 31.4468H57.2895C57.3547 31.4468 57.4075 31.3948 57.4075 31.3307V28.5621C57.4074 28.5468 57.4042 28.5316 57.3982 28.5174C57.3922 28.5033 57.3835 28.4904 57.3726 28.4796C57.3616 28.4688 57.3486 28.4603 57.3344 28.4546C57.3201 28.4488 57.3049 28.4459 57.2895 28.446H53.3221C52.9743 28.446 52.6408 28.3079 52.3949 28.062C52.149 27.8161 52.0109 27.4825 52.0109 27.1348C52.0109 26.787 52.149 26.4535 52.3949 26.2076C52.6408 25.9617 52.9743 25.8235 53.3221 25.8235H57.2895C58.8006 25.8235 60.03 27.052 60.03 28.5621V31.3307C60.03 32.8407 58.8006 34.0693 57.2895 34.0693ZM40.4477 28.446H19.5916C19.2439 28.446 18.9104 28.3079 18.6645 28.062C18.4186 27.8161 18.2804 27.4825 18.2804 27.1348C18.2804 26.787 18.4186 26.4535 18.6645 26.2076C18.9104 25.9617 19.2439 25.8235 19.5916 25.8235H40.4477C40.7954 25.8235 41.129 25.9617 41.3749 26.2076C41.6208 26.4535 41.7589 26.787 41.7589 27.1348C41.7589 27.4825 41.6208 27.8161 41.3749 28.062C41.129 28.3079 40.7954 28.446 40.4477 28.446ZM6.71724 34.0693H2.89595C1.38578 34.0693 0.157349 32.8407 0.157349 31.3307V28.5621C0.157349 27.052 1.38597 25.8235 2.89595 25.8235H6.71724C7.065 25.8235 7.39852 25.9617 7.64442 26.2076C7.89033 26.4535 8.02847 26.787 8.02847 27.1348C8.02847 27.4825 7.89033 27.8161 7.64442 28.062C7.39852 28.3079 7.065 28.446 6.71724 28.446H2.89595C2.86514 28.446 2.8356 28.4582 2.81382 28.48C2.79204 28.5018 2.77981 28.5313 2.77981 28.5621V31.3307C2.77981 31.3948 2.83188 31.4468 2.89595 31.4468H6.71724C7.065 31.4468 7.39852 31.585 7.64442 31.8309C7.89033 32.0768 8.02847 32.4103 8.02847 32.7581C8.02847 33.1058 7.89033 33.4394 7.64442 33.6853C7.39852 33.9312 7.065 34.0693 6.71724 34.0693Z" fill="#1C274C"/>
<path d="M16.7257 48.3001C16.1769 48.3016 15.6333 48.1943 15.1263 47.9843C14.6192 47.7744 14.1589 47.4659 13.7719 47.0769C13.3827 46.6898 13.0743 46.2294 12.8643 45.7223C12.6543 45.2152 12.5469 44.6715 12.5485 44.1227V15.7702C12.5485 13.4669 14.4222 11.593 16.7257 11.593C17.8417 11.593 18.8909 12.0273 19.6797 12.8161C20.4685 13.6049 20.9029 14.6541 20.9029 15.7702V44.1227C20.9029 46.4261 19.029 48.3001 16.7257 48.3001ZM16.7257 14.2154C15.8683 14.2154 15.1709 14.9128 15.1709 15.7702V44.1227C15.1709 44.5383 15.3326 44.9289 15.6259 45.2223C15.7701 45.3671 15.9415 45.4819 16.1302 45.56C16.319 45.6382 16.5214 45.6782 16.7257 45.6776C17.583 45.6776 18.2804 44.98 18.2804 44.1227V15.7702C18.2804 15.3545 18.1188 14.9641 17.8252 14.6706C17.5317 14.3771 17.1413 14.2154 16.7257 14.2154Z" fill="#1C274C"/>
<path d="M9.58135 44.7277C9.03283 44.7292 8.48946 44.6218 7.98272 44.4118C7.47598 44.2018 7.01593 43.8934 6.62921 43.5044C6.24015 43.1173 5.93171 42.657 5.72175 42.15C5.51178 41.6429 5.40447 41.0993 5.40602 40.5505V19.3423C5.40602 17.0391 7.27921 15.1651 9.58135 15.1651C10.6974 15.1651 11.7466 15.5995 12.5354 16.3883C13.3242 17.1771 13.7586 18.2263 13.7586 19.3423V40.5505C13.7586 42.8538 11.8846 44.7277 9.58135 44.7277ZM9.58135 17.7876C8.72512 17.7876 8.02848 18.4852 8.02848 19.3423V40.5505C8.02848 40.9662 8.19014 41.3566 8.48348 41.6499C8.62728 41.7946 8.79835 41.9094 8.9868 41.9876C9.17525 42.0657 9.37734 42.1057 9.58135 42.1053C10.4387 42.1053 11.1361 41.4077 11.1361 40.5505V19.3423C11.1361 18.9267 10.9744 18.5361 10.6809 18.2426C10.3874 17.949 9.99701 17.7876 9.58135 17.7876ZM43.3118 48.3001C41.0095 48.3001 39.1365 46.4261 39.1365 44.1227V15.7702C39.1349 15.2213 39.2422 14.6777 39.4522 14.1706C39.6622 13.6635 39.9707 13.2032 40.3598 12.8161C41.1449 12.0279 42.1941 11.593 43.3118 11.593C45.6151 11.593 47.489 13.4667 47.489 15.7702V44.1227C47.4906 44.6715 47.3833 45.2152 47.1734 45.7223C46.9634 46.2294 46.655 46.6898 46.266 47.0769C45.4765 47.8655 44.4277 48.3001 43.3118 48.3001ZM43.3118 14.2154C42.8963 14.2154 42.5071 14.3765 42.2158 14.6687C42.0706 14.8129 41.9554 14.9845 41.8769 15.1735C41.7985 15.3626 41.7584 15.5653 41.7589 15.77V44.1225C41.7589 44.9799 42.4556 45.6774 43.3118 45.6774C43.5161 45.678 43.7185 45.6381 43.9073 45.5599C44.0961 45.4817 44.2675 45.3669 44.4115 45.2221C44.5563 45.078 44.6711 44.9066 44.7492 44.7178C44.8273 44.5291 44.8672 44.3268 44.8665 44.1225V15.7702C44.8665 14.9128 44.169 14.2154 43.3118 14.2154Z" fill="#1C274C"/>
<path d="M50.4561 44.7277C48.1526 44.7277 46.2787 42.8538 46.2787 40.5505V19.3423C46.2787 18.2261 46.7131 17.1769 47.5021 16.3881C47.8891 15.9991 48.3495 15.6906 48.8566 15.4807C49.3636 15.2707 49.9073 15.1634 50.4561 15.1649C52.7593 15.1649 54.6333 17.0389 54.6333 19.3421V40.5503C54.6333 41.6666 54.1989 42.7157 53.4099 43.5044C52.6215 44.2933 51.5723 44.7277 50.4561 44.7277ZM50.4561 17.7876C50.2518 17.787 50.0495 17.8269 49.8607 17.905C49.672 17.9831 49.5006 18.0978 49.3565 18.2426C49.2117 18.3867 49.0968 18.5581 49.0187 18.7468C48.9405 18.9356 48.9006 19.138 48.9011 19.3423V40.5505C48.9011 41.4077 49.5987 42.1053 50.4561 42.1053C50.6603 42.1059 50.8627 42.0661 51.0514 41.9879C51.2401 41.9098 51.4115 41.795 51.5555 41.6501C51.7003 41.5061 51.8152 41.3347 51.8933 41.146C51.9715 40.9572 52.0114 40.7548 52.0108 40.5505V19.3423C52.0108 18.4852 51.3134 17.7876 50.4561 17.7876Z" fill="#1C274C"/>
</g>
<defs>
<clipPath id="clip0_6_23271">
<rect width="60" height="60" fill="white"/>
</clipPath>
</defs>
</svg>
